<svg width="599" height="387" viewBox="0 0 599 387" fill="none" xmlns="http://www.w3.org/2000/svg">
<g opacity="0.8">
<path d="M0.5 15C0.5 6.99188 6.99187 0.5 15 0.5H584C592.008 0.5 598.5 6.99187 598.5 15V386.5H0.5V15Z" fill="#171A1B"/>
<circle cx="28" cy="15" r="4" fill="#FF5F56"/>
<circle cx="44" cy="15" r="4" fill="#FFBD2E"/>
<circle cx="60" cy="15" r="4" fill="#27C93F"/>
<rect opacity="0.9" x="150" y="13" width="300" height="14" rx="5" fill="#202226"/>
<path d="M275.85 22.68C275.85 23.1667 275.79 23.5567 275.67 23.85C275.55 24.1433 275.373 24.38 275.14 24.56C274.913 24.7467 274.593 24.9333 274.18 25.12L273.91 24.45C274.17 24.33 274.37 24.21 274.51 24.09C274.65 23.9767 274.753 23.8133 274.82 23.6C274.893 23.3933 274.93 23.1067 274.93 22.74V17.73H275.85V22.68ZM275.39 15.2C275.583 15.2 275.74 15.26 275.86 15.38C275.98 15.5 276.04 15.65 276.04 15.83C276.04 16.01 275.98 16.16 275.86 16.28C275.74 16.3933 275.583 16.45 275.39 16.45C275.203 16.45 275.05 16.3933 274.93 16.28C274.81 16.16 274.75 16.01 274.75 15.83C274.75 15.65 274.81 15.5 274.93 15.38C275.05 15.26 275.203 15.2 275.39 15.2ZM279.583 17.61C280.323 17.61 280.896 17.8567 281.303 18.35C281.716 18.8433 281.923 19.5133 281.923 20.36C281.923 20.9067 281.829 21.39 281.643 21.81C281.456 22.2233 281.186 22.5467 280.833 22.78C280.479 23.0067 280.059 23.12 279.573 23.12C278.833 23.12 278.256 22.8733 277.843 22.38C277.429 21.8867 277.223 21.2167 277.223 20.37C277.223 19.8233 277.316 19.3433 277.503 18.93C277.689 18.51 277.959 18.1867 278.313 17.96C278.666 17.7267 279.089 17.61 279.583 17.61ZM279.583 18.35C278.669 18.35 278.213 19.0233 278.213 20.37C278.213 21.71 278.666 22.38 279.573 22.38C280.479 22.38 280.933 21.7067 280.933 20.36C280.933 19.02 280.483 18.35 279.583 18.35ZM285.773 17.61C286.253 17.61 286.626 17.7533 286.893 18.04C287.166 18.3267 287.303 18.72 287.303 19.22V23H286.383V19.35C286.383 18.9767 286.309 18.7133 286.163 18.56C286.023 18.4067 285.816 18.33 285.543 18.33C285.269 18.33 285.026 18.41 284.813 18.57C284.599 18.73 284.399 18.9567 284.213 19.25V23H283.293V15.62L284.213 15.52V18.46C284.626 17.8933 285.146 17.61 285.773 17.61ZM291.482 17.61C291.962 17.61 292.335 17.7533 292.602 18.04C292.875 18.3267 293.012 18.72 293.012 19.22V23H292.092V19.35C292.092 18.9767 292.022 18.7133 291.882 18.56C291.742 18.4067 291.535 18.33 291.262 18.33C290.982 18.33 290.735 18.41 290.522 18.57C290.309 18.73 290.109 18.96 289.922 19.26V23H289.002V17.73H289.792L289.872 18.51C290.059 18.23 290.289 18.01 290.562 17.85C290.842 17.69 291.149 17.61 291.482 17.61ZM298.791 15.61V23H297.981L297.891 22.27C297.718 22.5367 297.501 22.7467 297.241 22.9C296.981 23.0467 296.691 23.12 296.371 23.12C295.745 23.12 295.255 22.8733 294.901 22.38C294.555 21.8867 294.381 21.2233 294.381 20.39C294.381 19.85 294.465 19.37 294.631 18.95C294.798 18.53 295.038 18.2033 295.351 17.97C295.665 17.73 296.031 17.61 296.451 17.61C296.991 17.61 297.465 17.8267 297.871 18.26V15.5L298.791 15.61ZM296.571 22.39C296.851 22.39 297.091 22.3267 297.291 22.2C297.491 22.0667 297.685 21.87 297.871 21.61V19.03C297.698 18.8033 297.511 18.6333 297.311 18.52C297.118 18.4 296.898 18.34 296.651 18.34C296.245 18.34 295.928 18.51 295.701 18.85C295.481 19.19 295.371 19.6967 295.371 20.37C295.371 21.05 295.475 21.5567 295.681 21.89C295.888 22.2233 296.185 22.39 296.571 22.39ZM302.518 17.61C303.258 17.61 303.831 17.8567 304.238 18.35C304.651 18.8433 304.858 19.5133 304.858 20.36C304.858 20.9067 304.765 21.39 304.578 21.81C304.391 22.2233 304.121 22.5467 303.768 22.78C303.415 23.0067 302.995 23.12 302.508 23.12C301.768 23.12 301.191 22.8733 300.778 22.38C300.365 21.8867 300.158 21.2167 300.158 20.37C300.158 19.8233 300.251 19.3433 300.438 18.93C300.625 18.51 300.895 18.1867 301.248 17.96C301.601 17.7267 302.025 17.61 302.518 17.61ZM302.518 18.35C301.605 18.35 301.148 19.0233 301.148 20.37C301.148 21.71 301.601 22.38 302.508 22.38C303.415 22.38 303.868 21.7067 303.868 20.36C303.868 19.02 303.418 18.35 302.518 18.35ZM310.208 20.21C310.208 20.3633 310.201 20.52 310.188 20.68H306.828C306.868 21.26 307.014 21.6867 307.268 21.96C307.521 22.2333 307.848 22.37 308.248 22.37C308.501 22.37 308.734 22.3333 308.948 22.26C309.161 22.1867 309.384 22.07 309.618 21.91L310.018 22.46C309.458 22.9 308.844 23.12 308.178 23.12C307.444 23.12 306.871 22.88 306.458 22.4C306.051 21.92 305.848 21.26 305.848 20.42C305.848 19.8733 305.934 19.39 306.108 18.97C306.288 18.5433 306.541 18.21 306.868 17.97C307.201 17.73 307.591 17.61 308.038 17.61C308.738 17.61 309.274 17.84 309.648 18.3C310.021 18.76 310.208 19.3967 310.208 20.21ZM309.298 19.94C309.298 19.42 309.194 19.0233 308.988 18.75C308.781 18.4767 308.471 18.34 308.058 18.34C307.304 18.34 306.894 18.8933 306.828 20H309.298V19.94ZM311.669 21.73C311.869 21.73 312.036 21.7967 312.169 21.93C312.303 22.0633 312.369 22.2267 312.369 22.42C312.369 22.6133 312.303 22.78 312.169 22.92C312.036 23.0533 311.869 23.12 311.669 23.12C311.476 23.12 311.313 23.0533 311.179 22.92C311.046 22.78 310.979 22.6133 310.979 22.42C310.979 22.2267 311.046 22.0633 311.179 21.93C311.313 21.7967 311.476 21.73 311.669 21.73ZM315.504 17.61C315.817 17.61 316.104 17.6567 316.364 17.75C316.624 17.8367 316.874 17.98 317.114 18.18L316.674 18.76C316.487 18.6267 316.304 18.53 316.124 18.47C315.951 18.4033 315.757 18.37 315.544 18.37C315.117 18.37 314.784 18.54 314.544 18.88C314.311 19.22 314.194 19.7233 314.194 20.39C314.194 21.0567 314.311 21.55 314.544 21.87C314.777 22.1833 315.111 22.34 315.544 22.34C315.751 22.34 315.941 22.31 316.114 22.25C316.287 22.1833 316.481 22.08 316.694 21.94L317.114 22.54C316.634 22.9267 316.097 23.12 315.504 23.12C314.791 23.12 314.227 22.88 313.814 22.4C313.407 21.92 313.204 21.2567 313.204 20.41C313.204 19.85 313.297 19.36 313.484 18.94C313.671 18.52 313.934 18.1933 314.274 17.96C314.621 17.7267 315.031 17.61 315.504 17.61ZM319.994 17.61C320.734 17.61 321.307 17.8567 321.714 18.35C322.127 18.8433 322.334 19.5133 322.334 20.36C322.334 20.9067 322.241 21.39 322.054 21.81C321.867 22.2233 321.597 22.5467 321.244 22.78C320.891 23.0067 320.471 23.12 319.984 23.12C319.244 23.12 318.667 22.8733 318.254 22.38C317.841 21.8867 317.634 21.2167 317.634 20.37C317.634 19.8233 317.727 19.3433 317.914 18.93C318.101 18.51 318.371 18.1867 318.724 17.96C319.077 17.7267 319.501 17.61 319.994 17.61ZM319.994 18.35C319.081 18.35 318.624 19.0233 318.624 20.37C318.624 21.71 319.077 22.38 319.984 22.38C320.891 22.38 321.344 21.7067 321.344 20.36C321.344 19.02 320.894 18.35 319.994 18.35ZM328.994 17.61C329.427 17.61 329.774 17.7567 330.034 18.05C330.294 18.3367 330.424 18.7267 330.424 19.22V23H329.504V19.35C329.504 18.67 329.257 18.33 328.764 18.33C328.504 18.33 328.284 18.4067 328.104 18.56C327.924 18.7067 327.731 18.94 327.524 19.26V23H326.604V19.35C326.604 18.67 326.357 18.33 325.864 18.33C325.597 18.33 325.374 18.4067 325.194 18.56C325.014 18.7133 324.824 18.9467 324.624 19.26V23H323.704V17.73H324.494L324.574 18.5C324.967 17.9067 325.474 17.61 326.094 17.61C326.421 17.61 326.697 17.6933 326.924 17.86C327.157 18.0267 327.324 18.26 327.424 18.56C327.631 18.2533 327.857 18.02 328.104 17.86C328.357 17.6933 328.654 17.61 328.994 17.61Z" fill="white"/>
<path d="M97.904 109.968C98.224 109.968 98.4907 110.075 98.704 110.288C98.9173 110.501 99.024 110.763 99.024 111.072C99.024 111.381 98.9173 111.648 98.704 111.872C98.4907 112.085 98.224 112.192 97.904 112.192C97.5947 112.192 97.3333 112.085 97.12 111.872C96.9067 111.648 96.8 111.381 96.8 111.072C96.8 110.763 96.9067 110.501 97.12 110.288C97.3333 110.075 97.5947 109.968 97.904 109.968ZM103.924 100.784C104.66 100.784 105.289 100.891 105.812 101.104C106.334 101.307 106.841 101.627 107.332 102.064L106.5 102.992C106.084 102.661 105.673 102.421 105.268 102.272C104.873 102.112 104.446 102.032 103.988 102.032C103.412 102.032 102.937 102.165 102.564 102.432C102.19 102.699 102.004 103.088 102.004 103.6C102.004 103.92 102.068 104.192 102.196 104.416C102.324 104.629 102.558 104.827 102.9 105.008C103.252 105.189 103.758 105.381 104.42 105.584C105.113 105.797 105.689 106.027 106.148 106.272C106.606 106.517 106.974 106.859 107.252 107.296C107.54 107.723 107.684 108.267 107.684 108.928C107.684 109.568 107.524 110.133 107.204 110.624C106.894 111.115 106.441 111.499 105.844 111.776C105.257 112.053 104.558 112.192 103.748 112.192C102.222 112.192 100.974 111.717 100.004 110.768L100.836 109.84C101.284 110.203 101.737 110.48 102.196 110.672C102.654 110.853 103.166 110.944 103.732 110.944C104.414 110.944 104.98 110.779 105.428 110.448C105.876 110.107 106.1 109.616 106.1 108.976C106.1 108.613 106.03 108.315 105.892 108.08C105.753 107.835 105.513 107.616 105.172 107.424C104.841 107.232 104.356 107.04 103.716 106.848C102.585 106.507 101.758 106.096 101.236 105.616C100.713 105.136 100.452 104.485 100.452 103.664C100.452 103.109 100.596 102.613 100.884 102.176C101.182 101.739 101.593 101.397 102.116 101.152C102.649 100.907 103.252 100.784 103.924 100.784ZM112.771 103.376C113.955 103.376 114.872 103.771 115.523 104.56C116.184 105.349 116.515 106.421 116.515 107.776C116.515 108.651 116.365 109.424 116.067 110.096C115.768 110.757 115.336 111.275 114.771 111.648C114.205 112.011 113.533 112.192 112.755 112.192C111.571 112.192 110.648 111.797 109.987 111.008C109.325 110.219 108.995 109.147 108.995 107.792C108.995 106.917 109.144 106.149 109.443 105.488C109.741 104.816 110.173 104.299 110.739 103.936C111.304 103.563 111.981 103.376 112.771 103.376ZM112.771 104.56C111.309 104.56 110.579 105.637 110.579 107.792C110.579 109.936 111.304 111.008 112.755 111.008C114.205 111.008 114.931 109.931 114.931 107.776C114.931 105.632 114.211 104.56 112.771 104.56ZM122.562 103.376C123.522 103.376 124.285 103.765 124.85 104.544C125.416 105.312 125.698 106.389 125.698 107.776C125.698 108.651 125.565 109.424 125.298 110.096C125.032 110.757 124.648 111.275 124.146 111.648C123.645 112.011 123.058 112.192 122.386 112.192C121.501 112.192 120.754 111.819 120.146 111.072L120.002 112H118.706V100.176L120.178 100V104.624C120.786 103.792 121.581 103.376 122.562 103.376ZM122.034 111.024C122.685 111.024 123.192 110.763 123.554 110.24C123.928 109.707 124.114 108.885 124.114 107.776C124.114 106.635 123.944 105.813 123.602 105.312C123.261 104.8 122.776 104.544 122.146 104.544C121.4 104.544 120.744 104.981 120.178 105.856V109.888C120.402 110.24 120.674 110.517 120.994 110.72C121.325 110.923 121.672 111.024 122.034 111.024ZM131.63 103.376C131.929 103.376 132.206 103.408 132.462 103.472L132.19 104.912C131.934 104.848 131.689 104.816 131.454 104.816C130.932 104.816 130.51 105.008 130.19 105.392C129.87 105.776 129.62 106.373 129.438 107.184V112H127.966V103.568H129.23L129.374 105.28C129.598 104.651 129.902 104.176 130.286 103.856C130.67 103.536 131.118 103.376 131.63 103.376ZM139.782 107.536C139.782 107.781 139.771 108.032 139.75 108.288H134.374C134.438 109.216 134.672 109.899 135.078 110.336C135.483 110.773 136.006 110.992 136.646 110.992C137.051 110.992 137.424 110.933 137.766 110.816C138.107 110.699 138.464 110.512 138.838 110.256L139.478 111.136C138.582 111.84 137.6 112.192 136.534 112.192C135.36 112.192 134.443 111.808 133.782 111.04C133.131 110.272 132.806 109.216 132.806 107.872C132.806 106.997 132.944 106.224 133.222 105.552C133.51 104.869 133.915 104.336 134.438 103.952C134.971 103.568 135.595 103.376 136.31 103.376C137.43 103.376 138.288 103.744 138.886 104.48C139.483 105.216 139.782 106.235 139.782 107.536ZM138.326 107.104C138.326 106.272 138.16 105.637 137.83 105.2C137.499 104.763 137.003 104.544 136.342 104.544C135.136 104.544 134.48 105.429 134.374 107.2H138.326V107.104ZM151.829 112H150.357L149.973 107.024C149.813 105.072 149.722 103.573 149.701 102.528L147.317 110.752H145.893L143.381 102.512C143.381 103.845 143.311 105.387 143.173 107.136L142.805 112H141.365L142.277 100.976H144.325L146.645 108.992L148.853 100.976H150.917L151.829 112ZM155.578 103.568V112H154.106V103.568H155.578ZM154.826 99.52C155.135 99.52 155.386 99.616 155.578 99.808C155.77 100 155.866 100.24 155.866 100.528C155.866 100.816 155.77 101.056 155.578 101.248C155.386 101.429 155.135 101.52 154.826 101.52C154.527 101.52 154.282 101.429 154.09 101.248C153.898 101.056 153.802 100.816 153.802 100.528C153.802 100.24 153.898 100 154.09 99.808C154.282 99.616 154.527 99.52 154.826 99.52Z" fill="#7000FF"/>
<path d="M165.288 99.76C164.744 99.76 164.354 99.8453 164.12 100.016C163.885 100.176 163.768 100.453 163.768 100.848V104.672C163.768 105.216 163.672 105.611 163.48 105.856C163.288 106.091 162.984 106.277 162.568 106.416C162.994 106.565 163.298 106.752 163.48 106.976C163.672 107.2 163.768 107.584 163.768 108.128V111.952C163.768 112.347 163.885 112.624 164.12 112.784C164.354 112.955 164.744 113.04 165.288 113.04V114.176C164.221 114.176 163.469 113.989 163.032 113.616C162.594 113.253 162.376 112.645 162.376 111.792V108.24C162.376 107.792 162.29 107.477 162.12 107.296C161.96 107.115 161.672 107.024 161.256 107.024V105.808C161.672 105.808 161.96 105.712 162.12 105.52C162.29 105.328 162.376 105.008 162.376 104.56V101.008C162.376 100.155 162.594 99.5467 163.032 99.184C163.469 98.8107 164.221 98.624 165.288 98.624V99.76ZM197.949 136.976C199.613 136.976 200.946 137.365 201.949 138.144C202.962 138.912 203.469 140.341 203.469 142.432C203.469 144.469 202.962 145.909 201.949 146.752C200.946 147.584 199.725 148 198.285 148H195.645V136.976H197.949ZM197.165 138.192V146.8H198.397C199.421 146.8 200.253 146.485 200.893 145.856C201.533 145.227 201.853 144.085 201.853 142.432C201.853 141.269 201.688 140.379 201.357 139.76C201.026 139.131 200.605 138.715 200.093 138.512C199.581 138.299 198.978 138.192 198.285 138.192H197.165ZM211.99 143.536C211.99 143.781 211.979 144.032 211.958 144.288H206.582C206.646 145.216 206.881 145.899 207.286 146.336C207.691 146.773 208.214 146.992 208.854 146.992C209.259 146.992 209.633 146.933 209.974 146.816C210.315 146.699 210.673 146.512 211.046 146.256L211.686 147.136C210.79 147.84 209.809 148.192 208.742 148.192C207.569 148.192 206.651 147.808 205.99 147.04C205.339 146.272 205.014 145.216 205.014 143.872C205.014 142.997 205.153 142.224 205.43 141.552C205.718 140.869 206.123 140.336 206.646 139.952C207.179 139.568 207.803 139.376 208.518 139.376C209.638 139.376 210.497 139.744 211.094 140.48C211.691 141.216 211.99 142.235 211.99 143.536ZM210.534 143.104C210.534 142.272 210.369 141.637 210.038 141.2C209.707 140.763 209.211 140.544 208.55 140.544C207.345 140.544 206.689 141.429 206.582 143.2H210.534V143.104ZM220.23 139.568L217.366 148H215.59L212.678 139.568H214.278L216.486 146.688L218.678 139.568H220.23ZM227.979 143.536C227.979 143.781 227.968 144.032 227.947 144.288H222.571C222.635 145.216 222.869 145.899 223.275 146.336C223.68 146.773 224.203 146.992 224.843 146.992C225.248 146.992 225.621 146.933 225.963 146.816C226.304 146.699 226.661 146.512 227.035 146.256L227.675 147.136C226.779 147.84 225.797 148.192 224.731 148.192C223.557 148.192 222.64 147.808 221.979 147.04C221.328 146.272 221.003 145.216 221.003 143.872C221.003 142.997 221.141 142.224 221.419 141.552C221.707 140.869 222.112 140.336 222.635 139.952C223.168 139.568 223.792 139.376 224.507 139.376C225.627 139.376 226.485 139.744 227.083 140.48C227.68 141.216 227.979 142.235 227.979 143.536ZM226.523 143.104C226.523 142.272 226.357 141.637 226.027 141.2C225.696 140.763 225.2 140.544 224.539 140.544C223.333 140.544 222.677 141.429 222.571 143.2H226.523V143.104ZM231.769 148.192C231.225 148.192 230.793 148.032 230.473 147.712C230.164 147.381 230.009 146.923 230.009 146.336V136.176L231.481 136V146.304C231.481 146.539 231.519 146.709 231.593 146.816C231.679 146.923 231.817 146.976 232.009 146.976C232.212 146.976 232.393 146.944 232.553 146.88L232.937 147.904C232.585 148.096 232.196 148.192 231.769 148.192ZM237.627 139.376C238.811 139.376 239.728 139.771 240.379 140.56C241.04 141.349 241.371 142.421 241.371 143.776C241.371 144.651 241.221 145.424 240.923 146.096C240.624 146.757 240.192 147.275 239.627 147.648C239.061 148.011 238.389 148.192 237.611 148.192C236.427 148.192 235.504 147.797 234.843 147.008C234.181 146.219 233.851 145.147 233.851 143.792C233.851 142.917 234 142.149 234.299 141.488C234.597 140.816 235.029 140.299 235.595 139.936C236.16 139.563 236.837 139.376 237.627 139.376ZM237.627 140.56C236.165 140.56 235.435 141.637 235.435 143.792C235.435 145.936 236.16 147.008 237.611 147.008C239.061 147.008 239.787 145.931 239.787 143.776C239.787 141.632 239.067 140.56 237.627 140.56ZM247.434 139.376C248.512 139.376 249.301 139.76 249.802 140.528C250.304 141.296 250.554 142.379 250.554 143.776C250.554 145.099 250.266 146.165 249.69 146.976C249.114 147.787 248.298 148.192 247.242 148.192C246.304 148.192 245.568 147.872 245.034 147.232V151.232L243.562 151.408V139.568H244.826L244.938 140.704C245.248 140.277 245.621 139.952 246.058 139.728C246.496 139.493 246.954 139.376 247.434 139.376ZM246.89 146.992C248.277 146.992 248.97 145.92 248.97 143.776C248.97 141.621 248.336 140.544 247.066 140.544C246.65 140.544 246.272 140.667 245.93 140.912C245.589 141.157 245.29 141.472 245.034 141.856V145.968C245.248 146.299 245.514 146.555 245.834 146.736C246.154 146.907 246.506 146.992 246.89 146.992ZM259.191 143.536C259.191 143.781 259.18 144.032 259.159 144.288H253.783C253.847 145.216 254.081 145.899 254.487 146.336C254.892 146.773 255.415 146.992 256.055 146.992C256.46 146.992 256.833 146.933 257.175 146.816C257.516 146.699 257.873 146.512 258.247 146.256L258.887 147.136C257.991 147.84 257.009 148.192 255.943 148.192C254.769 148.192 253.852 147.808 253.191 147.04C252.54 146.272 252.215 145.216 252.215 143.872C252.215 142.997 252.353 142.224 252.631 141.552C252.919 140.869 253.324 140.336 253.847 139.952C254.38 139.568 255.004 139.376 255.719 139.376C256.839 139.376 257.697 139.744 258.295 140.48C258.892 141.216 259.191 142.235 259.191 143.536ZM257.735 143.104C257.735 142.272 257.569 141.637 257.239 141.2C256.908 140.763 256.412 140.544 255.751 140.544C254.545 140.544 253.889 141.429 253.783 143.2H257.735V143.104ZM264.965 139.376C265.264 139.376 265.541 139.408 265.797 139.472L265.525 140.912C265.269 140.848 265.024 140.816 264.789 140.816C264.267 140.816 263.845 141.008 263.525 141.392C263.205 141.776 262.955 142.373 262.773 143.184V148H261.301V139.568H262.565L262.709 141.28C262.933 140.651 263.237 140.176 263.621 139.856C264.005 139.536 264.453 139.376 264.965 139.376ZM267.773 145.968C268.093 145.968 268.36 146.075 268.573 146.288C268.787 146.501 268.893 146.763 268.893 147.072C268.893 147.403 268.797 147.781 268.605 148.208L267.533 150.656H266.477L267.117 148C266.979 147.893 266.867 147.76 266.781 147.6C266.707 147.44 266.669 147.264 266.669 147.072C266.669 146.763 266.776 146.501 266.989 146.288C267.203 146.075 267.464 145.968 267.773 145.968ZM267.773 140.08C268.093 140.08 268.36 140.187 268.573 140.4C268.787 140.613 268.893 140.875 268.893 141.184C268.893 141.493 268.787 141.76 268.573 141.984C268.36 142.197 268.093 142.304 267.773 142.304C267.464 142.304 267.203 142.197 266.989 141.984C266.776 141.76 266.669 141.493 266.669 141.184C266.669 140.875 266.776 140.613 266.989 140.4C267.203 140.187 267.464 140.08 267.773 140.08ZM201.108 164.464C201.108 165.552 200.868 166.368 200.388 166.912C199.919 167.456 199.199 167.883 198.228 168.192L197.828 167.088C198.319 166.896 198.687 166.688 198.932 166.464C199.177 166.24 199.348 165.968 199.444 165.648C199.54 165.328 199.588 164.912 199.588 164.4V154.976H201.108V164.464ZM206.703 154.784C207.439 154.784 208.068 154.891 208.591 155.104C209.114 155.307 209.62 155.627 210.111 156.064L209.279 156.992C208.863 156.661 208.452 156.421 208.047 156.272C207.652 156.112 207.226 156.032 206.767 156.032C206.191 156.032 205.716 156.165 205.343 156.432C204.97 156.699 204.783 157.088 204.783 157.6C204.783 157.92 204.847 158.192 204.975 158.416C205.103 158.629 205.338 158.827 205.679 159.008C206.031 159.189 206.538 159.381 207.199 159.584C207.892 159.797 208.468 160.027 208.927 160.272C209.386 160.517 209.754 160.859 210.031 161.296C210.319 161.723 210.463 162.267 210.463 162.928C210.463 163.568 210.303 164.133 209.983 164.624C209.674 165.115 209.22 165.499 208.623 165.776C208.036 166.053 207.338 166.192 206.527 166.192C205.002 166.192 203.754 165.717 202.783 164.768L203.615 163.84C204.063 164.203 204.516 164.48 204.975 164.672C205.434 164.853 205.946 164.944 206.511 164.944C207.194 164.944 207.759 164.779 208.207 164.448C208.655 164.107 208.879 163.616 208.879 162.976C208.879 162.613 208.81 162.315 208.671 162.08C208.532 161.835 208.292 161.616 207.951 161.424C207.62 161.232 207.135 161.04 206.495 160.848C205.364 160.507 204.538 160.096 204.015 159.616C203.492 159.136 203.231 158.485 203.231 157.664C203.231 157.109 203.375 156.613 203.663 156.176C203.962 155.739 204.372 155.397 204.895 155.152C205.428 154.907 206.031 154.784 206.703 154.784ZM212.766 163.968C213.086 163.968 213.353 164.075 213.566 164.288C213.779 164.501 213.886 164.763 213.886 165.072C213.886 165.403 213.79 165.781 213.598 166.208L212.526 168.656H211.47L212.11 166C211.971 165.893 211.859 165.76 211.774 165.6C211.699 165.44 211.662 165.264 211.662 165.072C211.662 164.763 211.769 164.501 211.982 164.288C212.195 164.075 212.457 163.968 212.766 163.968ZM223.916 154.784C224.577 154.784 225.132 154.869 225.58 155.04C226.039 155.211 226.503 155.488 226.972 155.872L226.14 156.848C225.468 156.304 224.759 156.032 224.012 156.032C223.095 156.032 222.353 156.384 221.788 157.088C221.233 157.792 220.956 158.923 220.956 160.48C220.956 161.995 221.233 163.115 221.788 163.84C222.343 164.555 223.079 164.912 223.996 164.912C224.465 164.912 224.876 164.832 225.228 164.672C225.58 164.512 225.953 164.288 226.348 164L227.1 164.96C226.759 165.312 226.321 165.605 225.788 165.84C225.255 166.075 224.641 166.192 223.948 166.192C223.052 166.192 222.252 165.973 221.548 165.536C220.855 165.088 220.311 164.437 219.916 163.584C219.532 162.72 219.34 161.685 219.34 160.48C219.34 159.275 219.543 158.245 219.948 157.392C220.353 156.528 220.903 155.877 221.596 155.44C222.289 155.003 223.063 154.784 223.916 154.784ZM231.337 154.784C232.073 154.784 232.702 154.891 233.225 155.104C233.748 155.307 234.254 155.627 234.745 156.064L233.913 156.992C233.497 156.661 233.086 156.421 232.681 156.272C232.286 156.112 231.86 156.032 231.401 156.032C230.825 156.032 230.35 156.165 229.977 156.432C229.604 156.699 229.417 157.088 229.417 157.6C229.417 157.92 229.481 158.192 229.609 158.416C229.737 158.629 229.972 158.827 230.313 159.008C230.665 159.189 231.172 159.381 231.833 159.584C232.526 159.797 233.102 160.027 233.561 160.272C234.02 160.517 234.388 160.859 234.665 161.296C234.953 161.723 235.097 162.267 235.097 162.928C235.097 163.568 234.937 164.133 234.617 164.624C234.308 165.115 233.854 165.499 233.257 165.776C232.67 166.053 231.972 166.192 231.161 166.192C229.636 166.192 228.388 165.717 227.417 164.768L228.249 163.84C228.697 164.203 229.15 164.48 229.609 164.672C230.068 164.853 230.58 164.944 231.145 164.944C231.828 164.944 232.393 164.779 232.841 164.448C233.289 164.107 233.513 163.616 233.513 162.976C233.513 162.613 233.444 162.315 233.305 162.08C233.166 161.835 232.926 161.616 232.585 161.424C232.254 161.232 231.769 161.04 231.129 160.848C229.998 160.507 229.172 160.096 228.649 159.616C228.126 159.136 227.865 158.485 227.865 157.664C227.865 157.109 228.009 156.613 228.297 156.176C228.596 155.739 229.006 155.397 229.529 155.152C230.062 154.907 230.665 154.784 231.337 154.784ZM239.628 154.784C240.364 154.784 240.993 154.891 241.516 155.104C242.039 155.307 242.545 155.627 243.036 156.064L242.204 156.992C241.788 156.661 241.377 156.421 240.972 156.272C240.577 156.112 240.151 156.032 239.692 156.032C239.116 156.032 238.641 156.165 238.268 156.432C237.895 156.699 237.708 157.088 237.708 157.6C237.708 157.92 237.772 158.192 237.9 158.416C238.028 158.629 238.263 158.827 238.604 159.008C238.956 159.189 239.463 159.381 240.124 159.584C240.817 159.797 241.393 160.027 241.852 160.272C242.311 160.517 242.679 160.859 242.956 161.296C243.244 161.723 243.388 162.267 243.388 162.928C243.388 163.568 243.228 164.133 242.908 164.624C242.599 165.115 242.145 165.499 241.548 165.776C240.961 166.053 240.263 166.192 239.452 166.192C237.927 166.192 236.679 165.717 235.708 164.768L236.54 163.84C236.988 164.203 237.441 164.48 237.9 164.672C238.359 164.853 238.871 164.944 239.436 164.944C240.119 164.944 240.684 164.779 241.132 164.448C241.58 164.107 241.804 163.616 241.804 162.976C241.804 162.613 241.735 162.315 241.596 162.08C241.457 161.835 241.217 161.616 240.876 161.424C240.545 161.232 240.06 161.04 239.42 160.848C238.289 160.507 237.463 160.096 236.94 159.616C236.417 159.136 236.156 158.485 236.156 157.664C236.156 157.109 236.3 156.613 236.588 156.176C236.887 155.739 237.297 155.397 237.82 155.152C238.353 154.907 238.956 154.784 239.628 154.784ZM245.691 163.968C246.011 163.968 246.278 164.075 246.491 164.288C246.704 164.501 246.811 164.763 246.811 165.072C246.811 165.403 246.715 165.781 246.523 166.208L245.451 168.656H244.395L245.035 166C244.896 165.893 244.784 165.76 244.699 165.6C244.624 165.44 244.587 165.264 244.587 165.072C244.587 164.763 244.694 164.501 244.907 164.288C245.12 164.075 245.382 163.968 245.691 163.968ZM245.691 158.08C246.011 158.08 246.278 158.187 246.491 158.4C246.704 158.613 246.811 158.875 246.811 159.184C246.811 159.493 246.704 159.76 246.491 159.984C246.278 160.197 246.011 160.304 245.691 160.304C245.382 160.304 245.12 160.197 244.907 159.984C244.694 159.76 244.587 159.493 244.587 159.184C244.587 158.875 244.694 158.613 244.907 158.4C245.12 158.187 245.382 158.08 245.691 158.08ZM96.72 188.624C97.7867 188.624 98.5387 188.811 98.976 189.184C99.4133 189.547 99.632 190.155 99.632 191.008V194.56C99.632 195.008 99.712 195.328 99.872 195.52C100.043 195.712 100.336 195.808 100.752 195.808V197.024C100.336 197.024 100.043 197.115 99.872 197.296C99.712 197.477 99.632 197.792 99.632 198.24V201.792C99.632 202.645 99.4133 203.253 98.976 203.616C98.5387 203.989 97.7867 204.176 96.72 204.176V203.04C97.264 203.04 97.6533 202.955 97.888 202.784C98.1227 202.624 98.24 202.347 98.24 201.952V198.128C98.24 197.584 98.3307 197.2 98.512 196.976C98.704 196.752 99.0133 196.565 99.44 196.416C99.024 196.277 98.72 196.091 98.528 195.856C98.336 195.611 98.24 195.216 98.24 194.672V190.848C98.24 190.453 98.1227 190.176 97.888 190.016C97.6533 189.845 97.264 189.76 96.72 189.76V188.624Z" fill="white"/>
<path d="M124.462 136.976C125.828 136.976 126.884 137.264 127.63 137.84C128.377 138.405 128.75 139.253 128.75 140.384C128.75 141.589 128.361 142.485 127.582 143.072C126.804 143.659 125.769 143.952 124.478 143.952H123.086V148H121.566V136.976H124.462ZM124.414 142.752C125.3 142.752 125.972 142.581 126.43 142.24C126.9 141.899 127.134 141.285 127.134 140.4C127.134 139.611 126.9 139.04 126.43 138.688C125.972 138.336 125.31 138.16 124.446 138.16H123.086V142.752H124.414ZM133.895 139.376C134.193 139.376 134.471 139.408 134.727 139.472L134.455 140.912C134.199 140.848 133.953 140.816 133.719 140.816C133.196 140.816 132.775 141.008 132.455 141.392C132.135 141.776 131.884 142.373 131.703 143.184V148H130.231V139.568H131.495L131.639 141.28C131.863 140.651 132.167 140.176 132.551 139.856C132.935 139.536 133.383 139.376 133.895 139.376ZM138.846 139.376C140.03 139.376 140.947 139.771 141.598 140.56C142.259 141.349 142.59 142.421 142.59 143.776C142.59 144.651 142.441 145.424 142.142 146.096C141.843 146.757 141.411 147.275 140.846 147.648C140.281 148.011 139.609 148.192 138.83 148.192C137.646 148.192 136.723 147.797 136.062 147.008C135.401 146.219 135.07 145.147 135.07 143.792C135.07 142.917 135.219 142.149 135.518 141.488C135.817 140.816 136.249 140.299 136.814 139.936C137.379 139.563 138.057 139.376 138.846 139.376ZM138.846 140.56C137.385 140.56 136.654 141.637 136.654 143.792C136.654 145.936 137.379 147.008 138.83 147.008C140.281 147.008 141.006 145.931 141.006 143.776C141.006 141.632 140.286 140.56 138.846 140.56ZM147.646 137.184C147.198 137.184 146.878 137.285 146.686 137.488C146.494 137.68 146.398 137.984 146.398 138.4V139.568H148.446L148.286 140.704H146.398V148H144.926V140.704H143.422V139.568H144.926V138.416C144.926 137.691 145.155 137.109 145.614 136.672C146.083 136.224 146.734 136 147.566 136C147.95 136 148.291 136.037 148.59 136.112C148.899 136.176 149.23 136.283 149.582 136.432L149.118 137.504C148.638 137.291 148.147 137.184 147.646 137.184ZM156.113 143.536C156.113 143.781 156.102 144.032 156.081 144.288H150.705C150.769 145.216 151.004 145.899 151.409 146.336C151.814 146.773 152.337 146.992 152.977 146.992C153.382 146.992 153.756 146.933 154.097 146.816C154.438 146.699 154.796 146.512 155.169 146.256L155.809 147.136C154.913 147.84 153.932 148.192 152.865 148.192C151.692 148.192 150.774 147.808 150.113 147.04C149.462 146.272 149.137 145.216 149.137 143.872C149.137 142.997 149.276 142.224 149.553 141.552C149.841 140.869 150.246 140.336 150.769 139.952C151.302 139.568 151.926 139.376 152.641 139.376C153.761 139.376 154.62 139.744 155.217 140.48C155.814 141.216 156.113 142.235 156.113 143.536ZM154.657 143.104C154.657 142.272 154.492 141.637 154.161 141.2C153.83 140.763 153.334 140.544 152.673 140.544C151.468 140.544 150.812 141.429 150.705 143.2H154.657V143.104ZM160.512 139.376C161.088 139.376 161.605 139.456 162.064 139.616C162.522 139.776 162.96 140.016 163.376 140.336L162.752 141.264C162.368 141.019 162 140.837 161.648 140.72C161.306 140.603 160.944 140.544 160.56 140.544C160.08 140.544 159.701 140.645 159.424 140.848C159.146 141.04 159.008 141.307 159.008 141.648C159.008 141.989 159.136 142.256 159.392 142.448C159.658 142.64 160.133 142.827 160.816 143.008C161.754 143.243 162.453 143.563 162.912 143.968C163.381 144.373 163.616 144.928 163.616 145.632C163.616 146.464 163.29 147.099 162.64 147.536C162 147.973 161.216 148.192 160.288 148.192C159.008 148.192 157.946 147.824 157.104 147.088L157.888 146.192C158.602 146.736 159.392 147.008 160.256 147.008C160.81 147.008 161.248 146.896 161.568 146.672C161.898 146.437 162.064 146.123 162.064 145.728C162.064 145.44 162.005 145.211 161.888 145.04C161.77 144.859 161.568 144.704 161.28 144.576C160.992 144.437 160.57 144.293 160.016 144.144C159.12 143.909 158.469 143.595 158.064 143.2C157.669 142.805 157.472 142.304 157.472 141.696C157.472 141.259 157.6 140.864 157.856 140.512C158.122 140.149 158.485 139.872 158.944 139.68C159.413 139.477 159.936 139.376 160.512 139.376ZM166.925 139.568V148H165.453V139.568H166.925ZM166.173 135.52C166.482 135.52 166.733 135.616 166.925 135.808C167.117 136 167.213 136.24 167.213 136.528C167.213 136.816 167.117 137.056 166.925 137.248C166.733 137.429 166.482 137.52 166.173 137.52C165.874 137.52 165.629 137.429 165.437 137.248C165.245 137.056 165.149 136.816 165.149 136.528C165.149 136.24 165.245 136 165.437 135.808C165.629 135.616 165.874 135.52 166.173 135.52ZM172.896 139.376C174.08 139.376 174.997 139.771 175.648 140.56C176.309 141.349 176.64 142.421 176.64 143.776C176.64 144.651 176.491 145.424 176.192 146.096C175.893 146.757 175.461 147.275 174.896 147.648C174.331 148.011 173.659 148.192 172.88 148.192C171.696 148.192 170.773 147.797 170.112 147.008C169.451 146.219 169.12 145.147 169.12 143.792C169.12 142.917 169.269 142.149 169.568 141.488C169.867 140.816 170.299 140.299 170.864 139.936C171.429 139.563 172.107 139.376 172.896 139.376ZM172.896 140.56C171.435 140.56 170.704 141.637 170.704 143.792C170.704 145.936 171.429 147.008 172.88 147.008C174.331 147.008 175.056 145.931 175.056 143.776C175.056 141.632 174.336 140.56 172.896 140.56ZM182.8 139.376C183.568 139.376 184.165 139.605 184.592 140.064C185.029 140.523 185.248 141.152 185.248 141.952V148H183.776V142.16C183.776 141.563 183.664 141.141 183.44 140.896C183.216 140.651 182.885 140.528 182.448 140.528C182 140.528 181.605 140.656 181.264 140.912C180.923 141.168 180.603 141.536 180.304 142.016V148H178.832V139.568H180.096L180.224 140.816C180.523 140.368 180.891 140.016 181.328 139.76C181.776 139.504 182.267 139.376 182.8 139.376ZM188.351 145.968C188.671 145.968 188.938 146.075 189.151 146.288C189.364 146.501 189.471 146.763 189.471 147.072C189.471 147.381 189.364 147.648 189.151 147.872C188.938 148.085 188.671 148.192 188.351 148.192C188.042 148.192 187.78 148.085 187.567 147.872C187.354 147.648 187.247 147.381 187.247 147.072C187.247 146.763 187.354 146.501 187.567 146.288C187.78 146.075 188.042 145.968 188.351 145.968ZM188.351 140.08C188.671 140.08 188.938 140.187 189.151 140.4C189.364 140.613 189.471 140.875 189.471 141.184C189.471 141.493 189.364 141.76 189.151 141.984C188.938 142.197 188.671 142.304 188.351 142.304C188.042 142.304 187.78 142.197 187.567 141.984C187.354 141.76 187.247 141.493 187.247 141.184C187.247 140.875 187.354 140.613 187.567 140.4C187.78 140.187 188.042 140.08 188.351 140.08ZM123.086 154.976V164.672H127.614L127.438 166H121.566V154.976H123.086ZM135.177 161.536C135.177 161.781 135.166 162.032 135.145 162.288H129.769C129.833 163.216 130.067 163.899 130.473 164.336C130.878 164.773 131.401 164.992 132.041 164.992C132.446 164.992 132.819 164.933 133.161 164.816C133.502 164.699 133.859 164.512 134.233 164.256L134.873 165.136C133.977 165.84 132.995 166.192 131.929 166.192C130.755 166.192 129.838 165.808 129.177 165.04C128.526 164.272 128.201 163.216 128.201 161.872C128.201 160.997 128.339 160.224 128.617 159.552C128.905 158.869 129.31 158.336 129.833 157.952C130.366 157.568 130.99 157.376 131.705 157.376C132.825 157.376 133.683 157.744 134.281 158.48C134.878 159.216 135.177 160.235 135.177 161.536ZM133.721 161.104C133.721 160.272 133.555 159.637 133.225 159.2C132.894 158.763 132.398 158.544 131.737 158.544C130.531 158.544 129.875 159.429 129.769 161.2H133.721V161.104ZM141.256 157.376C142.024 157.376 142.621 157.605 143.048 158.064C143.485 158.523 143.704 159.152 143.704 159.952V166H142.232V160.16C142.232 159.563 142.12 159.141 141.896 158.896C141.672 158.651 141.341 158.528 140.904 158.528C140.456 158.528 140.061 158.656 139.72 158.912C139.378 159.168 139.058 159.536 138.76 160.016V166H137.288V157.568H138.552L138.68 158.816C138.978 158.368 139.346 158.016 139.784 157.76C140.232 157.504 140.722 157.376 141.256 157.376ZM153.223 157.952C152.903 158.059 152.551 158.128 152.167 158.16C151.783 158.192 151.313 158.208 150.759 158.208C151.751 158.656 152.247 159.365 152.247 160.336C152.247 161.179 151.959 161.867 151.383 162.4C150.807 162.933 150.023 163.2 149.031 163.2C148.647 163.2 148.289 163.147 147.959 163.04C147.831 163.125 147.729 163.243 147.655 163.392C147.58 163.531 147.543 163.675 147.543 163.824C147.543 164.283 147.911 164.512 148.647 164.512H149.991C150.556 164.512 151.057 164.613 151.495 164.816C151.932 165.019 152.268 165.296 152.503 165.648C152.748 166 152.871 166.4 152.871 166.848C152.871 167.669 152.535 168.299 151.863 168.736C151.191 169.184 150.209 169.408 148.919 169.408C148.012 169.408 147.292 169.312 146.759 169.12C146.236 168.939 145.863 168.661 145.639 168.288C145.415 167.915 145.303 167.435 145.303 166.848H146.631C146.631 167.189 146.695 167.456 146.823 167.648C146.951 167.851 147.18 168 147.511 168.096C147.841 168.203 148.311 168.256 148.919 168.256C149.804 168.256 150.433 168.144 150.807 167.92C151.191 167.707 151.383 167.381 151.383 166.944C151.383 166.549 151.233 166.251 150.935 166.048C150.636 165.845 150.22 165.744 149.687 165.744H148.359C147.644 165.744 147.1 165.595 146.727 165.296C146.364 164.987 146.183 164.603 146.183 164.144C146.183 163.867 146.263 163.6 146.423 163.344C146.583 163.088 146.812 162.859 147.111 162.656C146.62 162.4 146.257 162.085 146.023 161.712C145.799 161.328 145.687 160.864 145.687 160.32C145.687 159.755 145.825 159.248 146.103 158.8C146.391 158.352 146.78 158.005 147.271 157.76C147.772 157.504 148.327 157.376 148.935 157.376C149.596 157.387 150.151 157.365 150.599 157.312C151.047 157.248 151.415 157.168 151.703 157.072C152.001 156.965 152.364 156.816 152.791 156.624L153.223 157.952ZM148.935 158.432C148.38 158.432 147.948 158.608 147.639 158.96C147.34 159.301 147.191 159.755 147.191 160.32C147.191 160.896 147.345 161.36 147.655 161.712C147.964 162.053 148.401 162.224 148.967 162.224C149.543 162.224 149.98 162.059 150.279 161.728C150.588 161.387 150.743 160.912 150.743 160.304C150.743 159.056 150.14 158.432 148.935 158.432ZM160.611 166H159.347L159.235 164.688C158.915 165.211 158.547 165.595 158.131 165.84C157.715 166.075 157.208 166.192 156.611 166.192C155.875 166.192 155.299 165.968 154.883 165.52C154.467 165.072 154.259 164.437 154.259 163.616V157.568H155.731V163.456C155.731 164.032 155.832 164.443 156.035 164.688C156.237 164.923 156.568 165.04 157.027 165.04C157.848 165.04 158.552 164.555 159.139 163.584V157.568H160.611V166ZM169.091 164.032C169.091 164.373 169.15 164.629 169.267 164.8C169.385 164.96 169.561 165.083 169.795 165.168L169.459 166.192C169.022 166.139 168.67 166.016 168.403 165.824C168.137 165.632 167.939 165.333 167.811 164.928C167.246 165.771 166.409 166.192 165.299 166.192C164.467 166.192 163.811 165.957 163.331 165.488C162.851 165.019 162.611 164.405 162.611 163.648C162.611 162.752 162.931 162.064 163.571 161.584C164.222 161.104 165.139 160.864 166.323 160.864H167.619V160.24C167.619 159.643 167.475 159.216 167.187 158.96C166.899 158.704 166.457 158.576 165.859 158.576C165.241 158.576 164.483 158.725 163.587 159.024L163.219 157.952C164.265 157.568 165.235 157.376 166.131 157.376C167.123 157.376 167.865 157.621 168.355 158.112C168.846 158.592 169.091 159.28 169.091 160.176V164.032ZM165.635 165.088C166.478 165.088 167.139 164.651 167.619 163.776V161.84H166.515C164.958 161.84 164.179 162.416 164.179 163.568C164.179 164.069 164.302 164.448 164.547 164.704C164.793 164.96 165.155 165.088 165.635 165.088ZM173.158 165.488C173.158 166.267 173.062 166.891 172.87 167.36C172.678 167.829 172.395 168.208 172.022 168.496C171.659 168.795 171.147 169.093 170.486 169.392L170.054 168.32C170.47 168.128 170.79 167.936 171.014 167.744C171.238 167.563 171.403 167.301 171.51 166.96C171.627 166.629 171.686 166.171 171.686 165.584V157.568H173.158V165.488ZM172.422 153.52C172.731 153.52 172.982 153.616 173.174 153.808C173.366 154 173.462 154.24 173.462 154.528C173.462 154.816 173.366 155.056 173.174 155.248C172.982 155.429 172.731 155.52 172.422 155.52C172.123 155.52 171.878 155.429 171.686 155.248C171.494 155.056 171.398 154.816 171.398 154.528C171.398 154.24 171.494 154 171.686 153.808C171.878 153.616 172.123 153.52 172.422 153.52ZM182.33 161.536C182.33 161.781 182.32 162.032 182.298 162.288H176.922C176.986 163.216 177.221 163.899 177.626 164.336C178.032 164.773 178.554 164.992 179.194 164.992C179.6 164.992 179.973 164.933 180.314 164.816C180.656 164.699 181.013 164.512 181.386 164.256L182.026 165.136C181.13 165.84 180.149 166.192 179.082 166.192C177.909 166.192 176.992 165.808 176.33 165.04C175.68 164.272 175.354 163.216 175.354 161.872C175.354 160.997 175.493 160.224 175.77 159.552C176.058 158.869 176.464 158.336 176.986 157.952C177.52 157.568 178.144 157.376 178.858 157.376C179.978 157.376 180.837 157.744 181.434 158.48C182.032 159.216 182.33 160.235 182.33 161.536ZM180.874 161.104C180.874 160.272 180.709 159.637 180.378 159.2C180.048 158.763 179.552 158.544 178.89 158.544C177.685 158.544 177.029 159.429 176.922 161.2H180.874V161.104ZM186.729 157.376C187.305 157.376 187.823 157.456 188.281 157.616C188.74 157.776 189.177 158.016 189.593 158.336L188.969 159.264C188.585 159.019 188.217 158.837 187.865 158.72C187.524 158.603 187.161 158.544 186.777 158.544C186.297 158.544 185.919 158.645 185.641 158.848C185.364 159.04 185.225 159.307 185.225 159.648C185.225 159.989 185.353 160.256 185.609 160.448C185.876 160.64 186.351 160.827 187.033 161.008C187.972 161.243 188.671 161.563 189.129 161.968C189.599 162.373 189.833 162.928 189.833 163.632C189.833 164.464 189.508 165.099 188.857 165.536C188.217 165.973 187.433 166.192 186.505 166.192C185.225 166.192 184.164 165.824 183.321 165.088L184.105 164.192C184.82 164.736 185.609 165.008 186.473 165.008C187.028 165.008 187.465 164.896 187.785 164.672C188.116 164.437 188.281 164.123 188.281 163.728C188.281 163.44 188.223 163.211 188.105 163.04C187.988 162.859 187.785 162.704 187.497 162.576C187.209 162.437 186.788 162.293 186.233 162.144C185.337 161.909 184.687 161.595 184.281 161.2C183.887 160.805 183.689 160.304 183.689 159.696C183.689 159.259 183.817 158.864 184.073 158.512C184.34 158.149 184.703 157.872 185.161 157.68C185.631 157.477 186.153 157.376 186.729 157.376ZM192.054 163.968C192.374 163.968 192.641 164.075 192.854 164.288C193.067 164.501 193.174 164.763 193.174 165.072C193.174 165.381 193.067 165.648 192.854 165.872C192.641 166.085 192.374 166.192 192.054 166.192C191.745 166.192 191.483 166.085 191.27 165.872C191.057 165.648 190.95 165.381 190.95 165.072C190.95 164.763 191.057 164.501 191.27 164.288C191.483 164.075 191.745 163.968 192.054 163.968ZM192.054 158.08C192.374 158.08 192.641 158.187 192.854 158.4C193.067 158.613 193.174 158.875 193.174 159.184C193.174 159.493 193.067 159.76 192.854 159.984C192.641 160.197 192.374 160.304 192.054 160.304C191.745 160.304 191.483 160.197 191.27 159.984C191.057 159.76 190.95 159.493 190.95 159.184C190.95 158.875 191.057 158.613 191.27 158.4C191.483 158.187 191.745 158.08 192.054 158.08Z" fill="#0EE6B7"/>
<path d="M97.904 239.968C98.224 239.968 98.4907 240.075 98.704 240.288C98.9173 240.501 99.024 240.763 99.024 241.072C99.024 241.381 98.9173 241.648 98.704 241.872C98.4907 242.085 98.224 242.192 97.904 242.192C97.5947 242.192 97.3333 242.085 97.12 241.872C96.9067 241.648 96.8 241.381 96.8 241.072C96.8 240.763 96.9067 240.501 97.12 240.288C97.3333 240.075 97.5947 239.968 97.904 239.968ZM107.172 230.976L106.996 232.192H102.724V235.792H106.436V237.008H102.724V240.784H107.3V242H101.204V230.976H107.172ZM115.662 230.176V242H114.366L114.222 240.832C113.944 241.259 113.598 241.595 113.182 241.84C112.766 242.075 112.302 242.192 111.79 242.192C110.787 242.192 110.003 241.797 109.438 241.008C108.883 240.219 108.606 239.157 108.606 237.824C108.606 236.96 108.739 236.192 109.006 235.52C109.272 234.848 109.656 234.325 110.158 233.952C110.659 233.568 111.246 233.376 111.918 233.376C112.782 233.376 113.539 233.723 114.19 234.416V230L115.662 230.176ZM112.11 241.024C112.558 241.024 112.942 240.923 113.262 240.72C113.582 240.507 113.891 240.192 114.19 239.776V235.648C113.912 235.285 113.614 235.013 113.294 234.832C112.984 234.64 112.632 234.544 112.238 234.544C111.587 234.544 111.08 234.816 110.718 235.36C110.366 235.904 110.19 236.715 110.19 237.792C110.19 238.88 110.355 239.691 110.686 240.224C111.016 240.757 111.491 241.024 112.11 241.024ZM124.728 242H123.464L123.352 240.688C123.032 241.211 122.664 241.595 122.248 241.84C121.832 242.075 121.326 242.192 120.728 242.192C119.992 242.192 119.416 241.968 119 241.52C118.584 241.072 118.376 240.437 118.376 239.616V233.568H119.848V239.456C119.848 240.032 119.95 240.443 120.152 240.688C120.355 240.923 120.686 241.04 121.144 241.04C121.966 241.04 122.67 240.555 123.256 239.584V233.568H124.728V242ZM130.601 233.376C131.102 233.376 131.561 233.451 131.977 233.6C132.393 233.739 132.793 233.968 133.177 234.288L132.473 235.216C132.174 235.003 131.881 234.848 131.593 234.752C131.315 234.645 131.006 234.592 130.665 234.592C129.982 234.592 129.449 234.864 129.065 235.408C128.691 235.952 128.505 236.757 128.505 237.824C128.505 238.891 128.691 239.68 129.065 240.192C129.438 240.693 129.971 240.944 130.665 240.944C130.995 240.944 131.299 240.896 131.577 240.8C131.854 240.693 132.163 240.528 132.505 240.304L133.177 241.264C132.409 241.883 131.55 242.192 130.601 242.192C129.459 242.192 128.558 241.808 127.897 241.04C127.246 240.272 126.921 239.211 126.921 237.856C126.921 236.96 127.07 236.176 127.369 235.504C127.667 234.832 128.089 234.309 128.633 233.936C129.187 233.563 129.843 233.376 130.601 233.376ZM140.453 240.032C140.453 240.373 140.512 240.629 140.629 240.8C140.746 240.96 140.922 241.083 141.157 241.168L140.821 242.192C140.384 242.139 140.032 242.016 139.765 241.824C139.498 241.632 139.301 241.333 139.173 240.928C138.608 241.771 137.77 242.192 136.661 242.192C135.829 242.192 135.173 241.957 134.693 241.488C134.213 241.019 133.973 240.405 133.973 239.648C133.973 238.752 134.293 238.064 134.933 237.584C135.584 237.104 136.501 236.864 137.685 236.864H138.981V236.24C138.981 235.643 138.837 235.216 138.549 234.96C138.261 234.704 137.818 234.576 137.221 234.576C136.602 234.576 135.845 234.725 134.949 235.024L134.581 233.952C135.626 233.568 136.597 233.376 137.493 233.376C138.485 233.376 139.226 233.621 139.717 234.112C140.208 234.592 140.453 235.28 140.453 236.176V240.032ZM136.997 241.088C137.84 241.088 138.501 240.651 138.981 239.776V237.84H137.877C136.32 237.84 135.541 238.416 135.541 239.568C135.541 240.069 135.664 240.448 135.909 240.704C136.154 240.96 136.517 241.088 136.997 241.088ZM146.308 233.376C146.81 233.376 147.268 233.451 147.684 233.6C148.1 233.739 148.5 233.968 148.884 234.288L148.18 235.216C147.882 235.003 147.588 234.848 147.3 234.752C147.023 234.645 146.714 234.592 146.372 234.592C145.69 234.592 145.156 234.864 144.772 235.408C144.399 235.952 144.212 236.757 144.212 237.824C144.212 238.891 144.399 239.68 144.772 240.192C145.146 240.693 145.679 240.944 146.372 240.944C146.703 240.944 147.007 240.896 147.284 240.8C147.562 240.693 147.871 240.528 148.212 240.304L148.884 241.264C148.116 241.883 147.258 242.192 146.308 242.192C145.167 242.192 144.266 241.808 143.604 241.04C142.954 240.272 142.628 239.211 142.628 237.856C142.628 236.96 142.778 236.176 143.076 235.504C143.375 234.832 143.796 234.309 144.34 233.936C144.895 233.563 145.551 233.376 146.308 233.376ZM152.109 233.568V242H150.637V233.568H152.109ZM151.357 229.52C151.666 229.52 151.917 229.616 152.109 229.808C152.301 230 152.397 230.24 152.397 230.528C152.397 230.816 152.301 231.056 152.109 231.248C151.917 231.429 151.666 231.52 151.357 231.52C151.058 231.52 150.813 231.429 150.621 231.248C150.429 231.056 150.333 230.816 150.333 230.528C150.333 230.24 150.429 230 150.621 229.808C150.813 229.616 151.058 229.52 151.357 229.52ZM158.081 233.376C159.265 233.376 160.182 233.771 160.833 234.56C161.494 235.349 161.825 236.421 161.825 237.776C161.825 238.651 161.675 239.424 161.377 240.096C161.078 240.757 160.646 241.275 160.081 241.648C159.515 242.011 158.843 242.192 158.065 242.192C156.881 242.192 155.958 241.797 155.297 241.008C154.635 240.219 154.305 239.147 154.305 237.792C154.305 236.917 154.454 236.149 154.753 235.488C155.051 234.816 155.483 234.299 156.049 233.936C156.614 233.563 157.291 233.376 158.081 233.376ZM158.081 234.56C156.619 234.56 155.889 235.637 155.889 237.792C155.889 239.936 156.614 241.008 158.065 241.008C159.515 241.008 160.241 239.931 160.241 237.776C160.241 235.632 159.521 234.56 158.081 234.56ZM167.984 233.376C168.752 233.376 169.35 233.605 169.776 234.064C170.214 234.523 170.432 235.152 170.432 235.952V242H168.96V236.16C168.96 235.563 168.848 235.141 168.624 234.896C168.4 234.651 168.07 234.528 167.632 234.528C167.184 234.528 166.79 234.656 166.448 234.912C166.107 235.168 165.787 235.536 165.488 236.016V242H164.016V233.568H165.28L165.408 234.816C165.707 234.368 166.075 234.016 166.512 233.76C166.96 233.504 167.451 233.376 167.984 233.376Z" fill="#7000FF"/>
<path d="M180.058 229.76C179.514 229.76 179.124 229.845 178.89 230.016C178.655 230.176 178.538 230.453 178.538 230.848V234.672C178.538 235.216 178.442 235.611 178.25 235.856C178.058 236.091 177.754 236.277 177.338 236.416C177.764 236.565 178.068 236.752 178.25 236.976C178.442 237.2 178.538 237.584 178.538 238.128V241.952C178.538 242.347 178.655 242.624 178.89 242.784C179.124 242.955 179.514 243.04 180.058 243.04V244.176C178.991 244.176 178.239 243.989 177.802 243.616C177.364 243.253 177.146 242.645 177.146 241.792V238.24C177.146 237.792 177.06 237.477 176.89 237.296C176.73 237.115 176.442 237.024 176.026 237.024V235.808C176.442 235.808 176.73 235.712 176.89 235.52C177.06 235.328 177.146 235.008 177.146 234.56V231.008C177.146 230.155 177.364 229.547 177.802 229.184C178.239 228.811 178.991 228.624 180.058 228.624V229.76ZM235.451 276.464C235.451 277.552 235.211 278.368 234.731 278.912C234.261 279.456 233.541 279.883 232.571 280.192L232.171 279.088C232.661 278.896 233.029 278.688 233.275 278.464C233.52 278.24 233.691 277.968 233.787 277.648C233.883 277.328 233.931 276.912 233.931 276.4V266.976H235.451V276.464ZM241.046 266.784C241.782 266.784 242.411 266.891 242.934 267.104C243.456 267.307 243.963 267.627 244.454 268.064L243.622 268.992C243.206 268.661 242.795 268.421 242.39 268.272C241.995 268.112 241.568 268.032 241.11 268.032C240.534 268.032 240.059 268.165 239.686 268.432C239.312 268.699 239.126 269.088 239.126 269.6C239.126 269.92 239.19 270.192 239.318 270.416C239.446 270.629 239.68 270.827 240.022 271.008C240.374 271.189 240.88 271.381 241.542 271.584C242.235 271.797 242.811 272.027 243.27 272.272C243.728 272.517 244.096 272.859 244.374 273.296C244.662 273.723 244.806 274.267 244.806 274.928C244.806 275.568 244.646 276.133 244.326 276.624C244.016 277.115 243.563 277.499 242.966 277.776C242.379 278.053 241.68 278.192 240.87 278.192C239.344 278.192 238.096 277.717 237.126 276.768L237.958 275.84C238.406 276.203 238.859 276.48 239.318 276.672C239.776 276.853 240.288 276.944 240.854 276.944C241.536 276.944 242.102 276.779 242.55 276.448C242.998 276.107 243.222 275.616 243.222 274.976C243.222 274.613 243.152 274.315 243.014 274.08C242.875 273.835 242.635 273.616 242.294 273.424C241.963 273.232 241.478 273.04 240.838 272.848C239.707 272.507 238.88 272.096 238.358 271.616C237.835 271.136 237.574 270.485 237.574 269.664C237.574 269.109 237.718 268.613 238.006 268.176C238.304 267.739 238.715 267.397 239.238 267.152C239.771 266.907 240.374 266.784 241.046 266.784ZM254.655 266.784C255.316 266.784 255.871 266.869 256.319 267.04C256.777 267.211 257.241 267.488 257.711 267.872L256.879 268.848C256.207 268.304 255.497 268.032 254.751 268.032C253.833 268.032 253.092 268.384 252.527 269.088C251.972 269.792 251.695 270.923 251.695 272.48C251.695 273.995 251.972 275.115 252.527 275.84C253.081 276.555 253.817 276.912 254.735 276.912C255.204 276.912 255.615 276.832 255.967 276.672C256.319 276.512 256.692 276.288 257.087 276L257.839 276.96C257.497 277.312 257.06 277.605 256.527 277.84C255.993 278.075 255.38 278.192 254.687 278.192C253.791 278.192 252.991 277.973 252.287 277.536C251.593 277.088 251.049 276.437 250.655 275.584C250.271 274.72 250.079 273.685 250.079 272.48C250.079 271.275 250.281 270.245 250.687 269.392C251.092 268.528 251.641 267.877 252.335 267.44C253.028 267.003 253.801 266.784 254.655 266.784ZM262.287 269.376C263.471 269.376 264.389 269.771 265.039 270.56C265.701 271.349 266.031 272.421 266.031 273.776C266.031 274.651 265.882 275.424 265.583 276.096C265.285 276.757 264.853 277.275 264.287 277.648C263.722 278.011 263.05 278.192 262.271 278.192C261.087 278.192 260.165 277.797 259.503 277.008C258.842 276.219 258.511 275.147 258.511 273.792C258.511 272.917 258.661 272.149 258.959 271.488C259.258 270.816 259.69 270.299 260.255 269.936C260.821 269.563 261.498 269.376 262.287 269.376ZM262.287 270.56C260.826 270.56 260.095 271.637 260.095 273.792C260.095 275.936 260.821 277.008 262.271 277.008C263.722 277.008 264.447 275.931 264.447 273.776C264.447 271.632 263.727 270.56 262.287 270.56ZM274.495 278H273.231L273.119 276.688C272.799 277.211 272.431 277.595 272.015 277.84C271.599 278.075 271.092 278.192 270.495 278.192C269.759 278.192 269.183 277.968 268.767 277.52C268.351 277.072 268.143 276.437 268.143 275.616V269.568H269.615V275.456C269.615 276.032 269.716 276.443 269.919 276.688C270.122 276.923 270.452 277.04 270.911 277.04C271.732 277.04 272.436 276.555 273.023 275.584V269.568H274.495V278ZM280.96 269.376C281.258 269.376 281.536 269.408 281.792 269.472L281.52 270.912C281.264 270.848 281.018 270.816 280.784 270.816C280.261 270.816 279.84 271.008 279.52 271.392C279.2 271.776 278.949 272.373 278.768 273.184V278H277.296V269.568H278.56L278.704 271.28C278.928 270.651 279.232 270.176 279.616 269.856C280 269.536 280.448 269.376 280.96 269.376ZM285.281 269.376C285.857 269.376 286.374 269.456 286.833 269.616C287.292 269.776 287.729 270.016 288.145 270.336L287.521 271.264C287.137 271.019 286.769 270.837 286.417 270.72C286.076 270.603 285.713 270.544 285.329 270.544C284.849 270.544 284.47 270.645 284.193 270.848C283.916 271.04 283.777 271.307 283.777 271.648C283.777 271.989 283.905 272.256 284.161 272.448C284.428 272.64 284.902 272.827 285.585 273.008C286.524 273.243 287.222 273.563 287.681 273.968C288.15 274.373 288.385 274.928 288.385 275.632C288.385 276.464 288.06 277.099 287.409 277.536C286.769 277.973 285.985 278.192 285.057 278.192C283.777 278.192 282.716 277.824 281.873 277.088L282.657 276.192C283.372 276.736 284.161 277.008 285.025 277.008C285.58 277.008 286.017 276.896 286.337 276.672C286.668 276.437 286.833 276.123 286.833 275.728C286.833 275.44 286.774 275.211 286.657 275.04C286.54 274.859 286.337 274.704 286.049 274.576C285.761 274.437 285.34 274.293 284.785 274.144C283.889 273.909 283.238 273.595 282.833 273.2C282.438 272.805 282.241 272.304 282.241 271.696C282.241 271.259 282.369 270.864 282.625 270.512C282.892 270.149 283.254 269.872 283.713 269.68C284.182 269.477 284.705 269.376 285.281 269.376ZM296.59 273.536C296.59 273.781 296.579 274.032 296.558 274.288H291.182C291.246 275.216 291.481 275.899 291.886 276.336C292.291 276.773 292.814 276.992 293.454 276.992C293.859 276.992 294.233 276.933 294.574 276.816C294.915 276.699 295.273 276.512 295.646 276.256L296.286 277.136C295.39 277.84 294.409 278.192 293.342 278.192C292.169 278.192 291.251 277.808 290.59 277.04C289.939 276.272 289.614 275.216 289.614 273.872C289.614 272.997 289.753 272.224 290.03 271.552C290.318 270.869 290.723 270.336 291.246 269.952C291.779 269.568 292.403 269.376 293.118 269.376C294.238 269.376 295.097 269.744 295.694 270.48C296.291 271.216 296.59 272.235 296.59 273.536ZM295.134 273.104C295.134 272.272 294.969 271.637 294.638 271.2C294.307 270.763 293.811 270.544 293.15 270.544C291.945 270.544 291.289 271.429 291.182 273.2H295.134V273.104ZM300.989 269.376C301.565 269.376 302.082 269.456 302.541 269.616C302.999 269.776 303.437 270.016 303.853 270.336L303.229 271.264C302.845 271.019 302.477 270.837 302.125 270.72C301.783 270.603 301.421 270.544 301.037 270.544C300.557 270.544 300.178 270.645 299.901 270.848C299.623 271.04 299.485 271.307 299.485 271.648C299.485 271.989 299.613 272.256 299.869 272.448C300.135 272.64 300.61 272.827 301.293 273.008C302.231 273.243 302.93 273.563 303.389 273.968C303.858 274.373 304.093 274.928 304.093 275.632C304.093 276.464 303.767 277.099 303.117 277.536C302.477 277.973 301.693 278.192 300.765 278.192C299.485 278.192 298.423 277.824 297.581 277.088L298.365 276.192C299.079 276.736 299.869 277.008 300.733 277.008C301.287 277.008 301.725 276.896 302.045 276.672C302.375 276.437 302.541 276.123 302.541 275.728C302.541 275.44 302.482 275.211 302.365 275.04C302.247 274.859 302.045 274.704 301.757 274.576C301.469 274.437 301.047 274.293 300.493 274.144C299.597 273.909 298.946 273.595 298.541 273.2C298.146 272.805 297.949 272.304 297.949 271.696C297.949 271.259 298.077 270.864 298.333 270.512C298.599 270.149 298.962 269.872 299.421 269.68C299.89 269.477 300.413 269.376 300.989 269.376ZM306.313 275.968C306.633 275.968 306.9 276.075 307.113 276.288C307.327 276.501 307.433 276.763 307.433 277.072C307.433 277.403 307.337 277.781 307.145 278.208L306.073 280.656H305.017L305.657 278C305.519 277.893 305.407 277.76 305.321 277.6C305.247 277.44 305.209 277.264 305.209 277.072C305.209 276.763 305.316 276.501 305.529 276.288C305.743 276.075 306.004 275.968 306.313 275.968ZM306.313 270.08C306.633 270.08 306.9 270.187 307.113 270.4C307.327 270.613 307.433 270.875 307.433 271.184C307.433 271.493 307.327 271.76 307.113 271.984C306.9 272.197 306.633 272.304 306.313 272.304C306.004 272.304 305.743 272.197 305.529 271.984C305.316 271.76 305.209 271.493 305.209 271.184C305.209 270.875 305.316 270.613 305.529 270.4C305.743 270.187 306.004 270.08 306.313 270.08ZM182.242 284.784C182.904 284.784 183.458 284.869 183.906 285.04C184.365 285.211 184.829 285.488 185.298 285.872L184.466 286.848C183.794 286.304 183.085 286.032 182.338 286.032C181.421 286.032 180.68 286.384 180.114 287.088C179.56 287.792 179.282 288.923 179.282 290.48C179.282 291.995 179.56 293.115 180.114 293.84C180.669 294.555 181.405 294.912 182.322 294.912C182.792 294.912 183.202 294.832 183.554 294.672C183.906 294.512 184.28 294.288 184.674 294L185.426 294.96C185.085 295.312 184.648 295.605 184.114 295.84C183.581 296.075 182.968 296.192 182.274 296.192C181.378 296.192 180.578 295.973 179.874 295.536C179.181 295.088 178.637 294.437 178.242 293.584C177.858 292.72 177.666 291.685 177.666 290.48C177.666 289.275 177.869 288.245 178.274 287.392C178.68 286.528 179.229 285.877 179.922 285.44C180.616 285.003 181.389 284.784 182.242 284.784ZM189.663 284.784C190.399 284.784 191.028 284.891 191.551 285.104C192.074 285.307 192.58 285.627 193.071 286.064L192.239 286.992C191.823 286.661 191.412 286.421 191.007 286.272C190.612 286.112 190.186 286.032 189.727 286.032C189.151 286.032 188.676 286.165 188.303 286.432C187.93 286.699 187.743 287.088 187.743 287.6C187.743 287.92 187.807 288.192 187.935 288.416C188.063 288.629 188.298 288.827 188.639 289.008C188.991 289.189 189.498 289.381 190.159 289.584C190.852 289.797 191.428 290.027 191.887 290.272C192.346 290.517 192.714 290.859 192.991 291.296C193.279 291.723 193.423 292.267 193.423 292.928C193.423 293.568 193.263 294.133 192.943 294.624C192.634 295.115 192.18 295.499 191.583 295.776C190.996 296.053 190.298 296.192 189.487 296.192C187.962 296.192 186.714 295.717 185.743 294.768L186.575 293.84C187.023 294.203 187.476 294.48 187.935 294.672C188.394 294.853 188.906 294.944 189.471 294.944C190.154 294.944 190.719 294.779 191.167 294.448C191.615 294.107 191.839 293.616 191.839 292.976C191.839 292.613 191.77 292.315 191.631 292.08C191.492 291.835 191.252 291.616 190.911 291.424C190.58 291.232 190.095 291.04 189.455 290.848C188.324 290.507 187.498 290.096 186.975 289.616C186.452 289.136 186.191 288.485 186.191 287.664C186.191 287.109 186.335 286.613 186.623 286.176C186.922 285.739 187.332 285.397 187.855 285.152C188.388 284.907 188.991 284.784 189.663 284.784ZM197.954 284.784C198.69 284.784 199.32 284.891 199.842 285.104C200.365 285.307 200.872 285.627 201.362 286.064L200.53 286.992C200.114 286.661 199.704 286.421 199.298 286.272C198.904 286.112 198.477 286.032 198.018 286.032C197.442 286.032 196.968 286.165 196.594 286.432C196.221 286.699 196.034 287.088 196.034 287.6C196.034 287.92 196.098 288.192 196.226 288.416C196.354 288.629 196.589 288.827 196.93 289.008C197.282 289.189 197.789 289.381 198.45 289.584C199.144 289.797 199.72 290.027 200.178 290.272C200.637 290.517 201.005 290.859 201.282 291.296C201.57 291.723 201.714 292.267 201.714 292.928C201.714 293.568 201.554 294.133 201.234 294.624C200.925 295.115 200.472 295.499 199.874 295.776C199.288 296.053 198.589 296.192 197.778 296.192C196.253 296.192 195.005 295.717 194.034 294.768L194.866 293.84C195.314 294.203 195.768 294.48 196.226 294.672C196.685 294.853 197.197 294.944 197.762 294.944C198.445 294.944 199.01 294.779 199.458 294.448C199.906 294.107 200.13 293.616 200.13 292.976C200.13 292.613 200.061 292.315 199.922 292.08C199.784 291.835 199.544 291.616 199.202 291.424C198.872 291.232 198.386 291.04 197.746 290.848C196.616 290.507 195.789 290.096 195.266 289.616C194.744 289.136 194.482 288.485 194.482 287.664C194.482 287.109 194.626 286.613 194.914 286.176C195.213 285.739 195.624 285.397 196.146 285.152C196.68 284.907 197.282 284.784 197.954 284.784ZM211.563 284.784C212.225 284.784 212.779 284.869 213.227 285.04C213.686 285.211 214.15 285.488 214.619 285.872L213.787 286.848C213.115 286.304 212.406 286.032 211.659 286.032C210.742 286.032 210.001 286.384 209.435 287.088C208.881 287.792 208.603 288.923 208.603 290.48C208.603 291.995 208.881 293.115 209.435 293.84C209.99 294.555 210.726 294.912 211.643 294.912C212.113 294.912 212.523 294.832 212.875 294.672C213.227 294.512 213.601 294.288 213.995 294L214.747 294.96C214.406 295.312 213.969 295.605 213.435 295.84C212.902 296.075 212.289 296.192 211.595 296.192C210.699 296.192 209.899 295.973 209.195 295.536C208.502 295.088 207.958 294.437 207.563 293.584C207.179 292.72 206.987 291.685 206.987 290.48C206.987 289.275 207.19 288.245 207.595 287.392C208.001 286.528 208.55 285.877 209.243 285.44C209.937 285.003 210.71 284.784 211.563 284.784ZM219.196 287.376C220.38 287.376 221.297 287.771 221.948 288.56C222.609 289.349 222.94 290.421 222.94 291.776C222.94 292.651 222.791 293.424 222.492 294.096C222.193 294.757 221.761 295.275 221.196 295.648C220.631 296.011 219.959 296.192 219.18 296.192C217.996 296.192 217.073 295.797 216.412 295.008C215.751 294.219 215.42 293.147 215.42 291.792C215.42 290.917 215.569 290.149 215.868 289.488C216.167 288.816 216.599 288.299 217.164 287.936C217.729 287.563 218.407 287.376 219.196 287.376ZM219.196 288.56C217.735 288.56 217.004 289.637 217.004 291.792C217.004 293.936 217.729 295.008 219.18 295.008C220.631 295.008 221.356 293.931 221.356 291.776C221.356 289.632 220.636 288.56 219.196 288.56ZM231.404 296H230.14L230.028 294.688C229.708 295.211 229.34 295.595 228.924 295.84C228.508 296.075 228.001 296.192 227.404 296.192C226.668 296.192 226.092 295.968 225.676 295.52C225.26 295.072 225.052 294.437 225.052 293.616V287.568H226.524V293.456C226.524 294.032 226.625 294.443 226.828 294.688C227.031 294.923 227.361 295.04 227.82 295.04C228.641 295.04 229.345 294.555 229.932 293.584V287.568H231.404V296ZM237.868 287.376C238.167 287.376 238.444 287.408 238.7 287.472L238.428 288.912C238.172 288.848 237.927 288.816 237.692 288.816C237.17 288.816 236.748 289.008 236.428 289.392C236.108 289.776 235.858 290.373 235.676 291.184V296H234.204V287.568H235.468L235.612 289.28C235.836 288.651 236.14 288.176 236.524 287.856C236.908 287.536 237.356 287.376 237.868 287.376ZM242.19 287.376C242.766 287.376 243.283 287.456 243.742 287.616C244.201 287.776 244.638 288.016 245.054 288.336L244.43 289.264C244.046 289.019 243.678 288.837 243.326 288.72C242.985 288.603 242.622 288.544 242.238 288.544C241.758 288.544 241.379 288.645 241.102 288.848C240.825 289.04 240.686 289.307 240.686 289.648C240.686 289.989 240.814 290.256 241.07 290.448C241.337 290.64 241.811 290.827 242.494 291.008C243.433 291.243 244.131 291.563 244.59 291.968C245.059 292.373 245.294 292.928 245.294 293.632C245.294 294.464 244.969 295.099 244.318 295.536C243.678 295.973 242.894 296.192 241.966 296.192C240.686 296.192 239.625 295.824 238.782 295.088L239.566 294.192C240.281 294.736 241.07 295.008 241.934 295.008C242.489 295.008 242.926 294.896 243.246 294.672C243.577 294.437 243.742 294.123 243.742 293.728C243.742 293.44 243.683 293.211 243.566 293.04C243.449 292.859 243.246 292.704 242.958 292.576C242.67 292.437 242.249 292.293 241.694 292.144C240.798 291.909 240.147 291.595 239.742 291.2C239.347 290.805 239.15 290.304 239.15 289.696C239.15 289.259 239.278 288.864 239.534 288.512C239.801 288.149 240.163 287.872 240.622 287.68C241.091 287.477 241.614 287.376 242.19 287.376ZM253.499 291.536C253.499 291.781 253.488 292.032 253.467 292.288H248.091C248.155 293.216 248.389 293.899 248.795 294.336C249.2 294.773 249.723 294.992 250.363 294.992C250.768 294.992 251.141 294.933 251.483 294.816C251.824 294.699 252.181 294.512 252.555 294.256L253.195 295.136C252.299 295.84 251.317 296.192 250.251 296.192C249.077 296.192 248.16 295.808 247.499 295.04C246.848 294.272 246.523 293.216 246.523 291.872C246.523 290.997 246.661 290.224 246.939 289.552C247.227 288.869 247.632 288.336 248.155 287.952C248.688 287.568 249.312 287.376 250.027 287.376C251.147 287.376 252.005 287.744 252.603 288.48C253.2 289.216 253.499 290.235 253.499 291.536ZM252.043 291.104C252.043 290.272 251.877 289.637 251.547 289.2C251.216 288.763 250.72 288.544 250.059 288.544C248.853 288.544 248.197 289.429 248.091 291.2H252.043V291.104ZM257.897 287.376C258.473 287.376 258.991 287.456 259.449 287.616C259.908 287.776 260.345 288.016 260.761 288.336L260.137 289.264C259.753 289.019 259.385 288.837 259.033 288.72C258.692 288.603 258.329 288.544 257.945 288.544C257.465 288.544 257.087 288.645 256.809 288.848C256.532 289.04 256.393 289.307 256.393 289.648C256.393 289.989 256.521 290.256 256.777 290.448C257.044 290.64 257.519 290.827 258.201 291.008C259.14 291.243 259.839 291.563 260.297 291.968C260.767 292.373 261.001 292.928 261.001 293.632C261.001 294.464 260.676 295.099 260.025 295.536C259.385 295.973 258.601 296.192 257.673 296.192C256.393 296.192 255.332 295.824 254.489 295.088L255.273 294.192C255.988 294.736 256.777 295.008 257.641 295.008C258.196 295.008 258.633 294.896 258.953 294.672C259.284 294.437 259.449 294.123 259.449 293.728C259.449 293.44 259.391 293.211 259.273 293.04C259.156 292.859 258.953 292.704 258.665 292.576C258.377 292.437 257.956 292.293 257.401 292.144C256.505 291.909 255.855 291.595 255.449 291.2C255.055 290.805 254.857 290.304 254.857 289.696C254.857 289.259 254.985 288.864 255.241 288.512C255.508 288.149 255.871 287.872 256.329 287.68C256.799 287.477 257.321 287.376 257.897 287.376ZM263.222 293.968C263.542 293.968 263.809 294.075 264.022 294.288C264.235 294.501 264.342 294.763 264.342 295.072C264.342 295.403 264.246 295.781 264.054 296.208L262.982 298.656H261.926L262.566 296C262.427 295.893 262.315 295.76 262.23 295.6C262.155 295.44 262.118 295.264 262.118 295.072C262.118 294.763 262.225 294.501 262.438 294.288C262.651 294.075 262.913 293.968 263.222 293.968ZM263.222 288.08C263.542 288.08 263.809 288.187 264.022 288.4C264.235 288.613 264.342 288.875 264.342 289.184C264.342 289.493 264.235 289.76 264.022 289.984C263.809 290.197 263.542 290.304 263.222 290.304C262.913 290.304 262.651 290.197 262.438 289.984C262.225 289.76 262.118 289.493 262.118 289.184C262.118 288.875 262.225 288.613 262.438 288.4C262.651 288.187 262.913 288.08 263.222 288.08ZM96.72 318.624C97.7867 318.624 98.5387 318.811 98.976 319.184C99.4133 319.547 99.632 320.155 99.632 321.008V324.56C99.632 325.008 99.712 325.328 99.872 325.52C100.043 325.712 100.336 325.808 100.752 325.808V327.024C100.336 327.024 100.043 327.115 99.872 327.296C99.712 327.477 99.632 327.792 99.632 328.24V331.792C99.632 332.645 99.4133 333.253 98.976 333.616C98.5387 333.989 97.7867 334.176 96.72 334.176V333.04C97.264 333.04 97.6533 332.955 97.888 332.784C98.1227 332.624 98.24 332.347 98.24 331.952V328.128C98.24 327.584 98.3307 327.2 98.512 326.976C98.704 326.752 99.0133 326.565 99.44 326.416C99.024 326.277 98.72 326.091 98.528 325.856C98.336 325.611 98.24 325.216 98.24 324.672V320.848C98.24 320.453 98.1227 320.176 97.888 320.016C97.6533 319.845 97.264 319.76 96.72 319.76V318.624Z" fill="white"/>
<path d="M121.566 278V266.976H127.422L127.246 268.192H123.086V271.952H126.686V273.152H123.086V278H121.566ZM132.207 269.376C132.506 269.376 132.783 269.408 133.039 269.472L132.767 270.912C132.511 270.848 132.266 270.816 132.031 270.816C131.508 270.816 131.087 271.008 130.767 271.392C130.447 271.776 130.196 272.373 130.015 273.184V278H128.543V269.568H129.807L129.951 271.28C130.175 270.651 130.479 270.176 130.863 269.856C131.247 269.536 131.695 269.376 132.207 269.376ZM140.359 273.536C140.359 273.781 140.348 274.032 140.327 274.288H134.951C135.015 275.216 135.249 275.899 135.655 276.336C136.06 276.773 136.583 276.992 137.223 276.992C137.628 276.992 138.001 276.933 138.343 276.816C138.684 276.699 139.041 276.512 139.415 276.256L140.055 277.136C139.159 277.84 138.177 278.192 137.111 278.192C135.937 278.192 135.02 277.808 134.359 277.04C133.708 276.272 133.383 275.216 133.383 273.872C133.383 272.997 133.521 272.224 133.799 271.552C134.087 270.869 134.492 270.336 135.015 269.952C135.548 269.568 136.172 269.376 136.887 269.376C138.007 269.376 138.865 269.744 139.463 270.48C140.06 271.216 140.359 272.235 140.359 273.536ZM138.903 273.104C138.903 272.272 138.737 271.637 138.407 271.2C138.076 270.763 137.58 270.544 136.919 270.544C135.713 270.544 135.057 271.429 134.951 273.2H138.903V273.104ZM148.837 273.536C148.837 273.781 148.827 274.032 148.805 274.288H143.429C143.493 275.216 143.728 275.899 144.133 276.336C144.539 276.773 145.061 276.992 145.701 276.992C146.107 276.992 146.48 276.933 146.821 276.816C147.163 276.699 147.52 276.512 147.893 276.256L148.533 277.136C147.637 277.84 146.656 278.192 145.589 278.192C144.416 278.192 143.499 277.808 142.837 277.04C142.187 276.272 141.861 275.216 141.861 273.872C141.861 272.997 142 272.224 142.277 271.552C142.565 270.869 142.971 270.336 143.493 269.952C144.027 269.568 144.651 269.376 145.365 269.376C146.485 269.376 147.344 269.744 147.941 270.48C148.539 271.216 148.837 272.235 148.837 273.536ZM147.381 273.104C147.381 272.272 147.216 271.637 146.885 271.2C146.555 270.763 146.059 270.544 145.397 270.544C144.192 270.544 143.536 271.429 143.429 273.2H147.381V273.104ZM154.884 266.784C155.545 266.784 156.1 266.869 156.548 267.04C157.007 267.211 157.471 267.488 157.94 267.872L157.108 268.848C156.436 268.304 155.727 268.032 154.98 268.032C154.063 268.032 153.321 268.384 152.756 269.088C152.201 269.792 151.924 270.923 151.924 272.48C151.924 273.995 152.201 275.115 152.756 275.84C153.311 276.555 154.047 276.912 154.964 276.912C155.433 276.912 155.844 276.832 156.196 276.672C156.548 276.512 156.921 276.288 157.316 276L158.068 276.96C157.727 277.312 157.289 277.605 156.756 277.84C156.223 278.075 155.609 278.192 154.916 278.192C154.02 278.192 153.22 277.973 152.516 277.536C151.823 277.088 151.279 276.437 150.884 275.584C150.5 274.72 150.308 273.685 150.308 272.48C150.308 271.275 150.511 270.245 150.916 269.392C151.321 268.528 151.871 267.877 152.564 267.44C153.257 267.003 154.031 266.784 154.884 266.784ZM162.517 269.376C163.701 269.376 164.618 269.771 165.269 270.56C165.93 271.349 166.261 272.421 166.261 273.776C166.261 274.651 166.111 275.424 165.813 276.096C165.514 276.757 165.082 277.275 164.517 277.648C163.951 278.011 163.279 278.192 162.501 278.192C161.317 278.192 160.394 277.797 159.733 277.008C159.071 276.219 158.741 275.147 158.741 273.792C158.741 272.917 158.89 272.149 159.189 271.488C159.487 270.816 159.919 270.299 160.485 269.936C161.05 269.563 161.727 269.376 162.517 269.376ZM162.517 270.56C161.055 270.56 160.325 271.637 160.325 273.792C160.325 275.936 161.05 277.008 162.501 277.008C163.951 277.008 164.677 275.931 164.677 273.776C164.677 271.632 163.957 270.56 162.517 270.56ZM174.981 266.176V278H173.685L173.541 276.832C173.263 277.259 172.917 277.595 172.501 277.84C172.085 278.075 171.621 278.192 171.109 278.192C170.106 278.192 169.322 277.797 168.757 277.008C168.202 276.219 167.925 275.157 167.925 273.824C167.925 272.96 168.058 272.192 168.325 271.52C168.591 270.848 168.975 270.325 169.477 269.952C169.978 269.568 170.565 269.376 171.237 269.376C172.101 269.376 172.858 269.723 173.509 270.416V266L174.981 266.176ZM171.429 277.024C171.877 277.024 172.261 276.923 172.581 276.72C172.901 276.507 173.21 276.192 173.509 275.776V271.648C173.231 271.285 172.933 271.013 172.613 270.832C172.303 270.64 171.951 270.544 171.557 270.544C170.906 270.544 170.399 270.816 170.037 271.36C169.685 271.904 169.509 272.715 169.509 273.792C169.509 274.88 169.674 275.691 170.005 276.224C170.335 276.757 170.81 277.024 171.429 277.024ZM184.143 273.536C184.143 273.781 184.132 274.032 184.111 274.288H178.735C178.799 275.216 179.034 275.899 179.439 276.336C179.844 276.773 180.367 276.992 181.007 276.992C181.412 276.992 181.786 276.933 182.127 276.816C182.468 276.699 182.826 276.512 183.199 276.256L183.839 277.136C182.943 277.84 181.962 278.192 180.895 278.192C179.722 278.192 178.804 277.808 178.143 277.04C177.492 276.272 177.167 275.216 177.167 273.872C177.167 272.997 177.306 272.224 177.583 271.552C177.871 270.869 178.276 270.336 178.799 269.952C179.332 269.568 179.956 269.376 180.671 269.376C181.791 269.376 182.65 269.744 183.247 270.48C183.844 271.216 184.143 272.235 184.143 273.536ZM182.687 273.104C182.687 272.272 182.522 271.637 182.191 271.2C181.86 270.763 181.364 270.544 180.703 270.544C179.498 270.544 178.842 271.429 178.735 273.2H182.687V273.104ZM190.19 266.784C190.851 266.784 191.406 266.869 191.854 267.04C192.312 267.211 192.776 267.488 193.246 267.872L192.414 268.848C191.742 268.304 191.032 268.032 190.286 268.032C189.368 268.032 188.627 268.384 188.062 269.088C187.507 269.792 187.23 270.923 187.23 272.48C187.23 273.995 187.507 275.115 188.062 275.84C188.616 276.555 189.352 276.912 190.27 276.912C190.739 276.912 191.15 276.832 191.502 276.672C191.854 276.512 192.227 276.288 192.622 276L193.374 276.96C193.032 277.312 192.595 277.605 192.062 277.84C191.528 278.075 190.915 278.192 190.222 278.192C189.326 278.192 188.526 277.973 187.822 277.536C187.128 277.088 186.584 276.437 186.19 275.584C185.806 274.72 185.614 273.685 185.614 272.48C185.614 271.275 185.816 270.245 186.222 269.392C186.627 268.528 187.176 267.877 187.87 267.44C188.563 267.003 189.336 266.784 190.19 266.784ZM200.491 276.032C200.491 276.373 200.549 276.629 200.667 276.8C200.784 276.96 200.96 277.083 201.195 277.168L200.859 278.192C200.421 278.139 200.069 278.016 199.803 277.824C199.536 277.632 199.339 277.333 199.211 276.928C198.645 277.771 197.808 278.192 196.699 278.192C195.867 278.192 195.211 277.957 194.731 277.488C194.251 277.019 194.011 276.405 194.011 275.648C194.011 274.752 194.331 274.064 194.971 273.584C195.621 273.104 196.539 272.864 197.723 272.864H199.019V272.24C199.019 271.643 198.875 271.216 198.587 270.96C198.299 270.704 197.856 270.576 197.259 270.576C196.64 270.576 195.883 270.725 194.987 271.024L194.619 269.952C195.664 269.568 196.635 269.376 197.531 269.376C198.523 269.376 199.264 269.621 199.755 270.112C200.245 270.592 200.491 271.28 200.491 272.176V276.032ZM197.035 277.088C197.877 277.088 198.539 276.651 199.019 275.776V273.84H197.915C196.357 273.84 195.579 274.416 195.579 275.568C195.579 276.069 195.701 276.448 195.947 276.704C196.192 276.96 196.555 277.088 197.035 277.088ZM211.738 269.376C212.431 269.376 212.986 269.611 213.402 270.08C213.818 270.539 214.026 271.163 214.026 271.952V278H212.554V272.16C212.554 271.072 212.159 270.528 211.37 270.528C210.954 270.528 210.602 270.651 210.314 270.896C210.026 271.131 209.716 271.504 209.386 272.016V278H207.914V272.16C207.914 271.072 207.519 270.528 206.73 270.528C206.303 270.528 205.946 270.651 205.658 270.896C205.37 271.141 205.066 271.515 204.746 272.016V278H203.274V269.568H204.538L204.666 270.8C205.295 269.851 206.106 269.376 207.098 269.376C207.62 269.376 208.063 269.509 208.426 269.776C208.799 270.043 209.066 270.416 209.226 270.896C209.556 270.405 209.919 270.032 210.314 269.776C210.719 269.509 211.194 269.376 211.738 269.376ZM220.624 269.376C221.702 269.376 222.491 269.76 222.992 270.528C223.494 271.296 223.744 272.379 223.744 273.776C223.744 275.099 223.456 276.165 222.88 276.976C222.304 277.787 221.488 278.192 220.432 278.192C219.494 278.192 218.758 277.872 218.224 277.232V281.232L216.752 281.408V269.568H218.016L218.128 270.704C218.438 270.277 218.811 269.952 219.248 269.728C219.686 269.493 220.144 269.376 220.624 269.376ZM220.08 276.992C221.467 276.992 222.16 275.92 222.16 273.776C222.16 271.621 221.526 270.544 220.256 270.544C219.84 270.544 219.462 270.667 219.12 270.912C218.779 271.157 218.48 271.472 218.224 271.856V275.968C218.438 276.299 218.704 276.555 219.024 276.736C219.344 276.907 219.696 276.992 220.08 276.992ZM226.396 275.968C226.716 275.968 226.983 276.075 227.196 276.288C227.41 276.501 227.516 276.763 227.516 277.072C227.516 277.381 227.41 277.648 227.196 277.872C226.983 278.085 226.716 278.192 226.396 278.192C226.087 278.192 225.826 278.085 225.612 277.872C225.399 277.648 225.292 277.381 225.292 277.072C225.292 276.763 225.399 276.501 225.612 276.288C225.826 276.075 226.087 275.968 226.396 275.968ZM226.396 270.08C226.716 270.08 226.983 270.187 227.196 270.4C227.41 270.613 227.516 270.875 227.516 271.184C227.516 271.493 227.41 271.76 227.196 271.984C226.983 272.197 226.716 272.304 226.396 272.304C226.087 272.304 225.826 272.197 225.612 271.984C225.399 271.76 225.292 271.493 225.292 271.184C225.292 270.875 225.399 270.613 225.612 270.4C225.826 270.187 226.087 270.08 226.396 270.08ZM129.118 292.464C129.118 293.2 128.964 293.851 128.654 294.416C128.356 294.971 127.913 295.408 127.326 295.728C126.75 296.037 126.057 296.192 125.246 296.192C124.02 296.192 123.07 295.856 122.398 295.184C121.737 294.501 121.406 293.595 121.406 292.464V284.976H122.926V292.352C122.926 293.205 123.118 293.845 123.502 294.272C123.886 294.699 124.468 294.912 125.246 294.912C126.036 294.912 126.622 294.704 127.006 294.288C127.39 293.861 127.582 293.216 127.582 292.352V284.976H129.118V292.464ZM138.368 284.176V296H137.072L136.928 294.832C136.651 295.259 136.304 295.595 135.888 295.84C135.472 296.075 135.008 296.192 134.496 296.192C133.493 296.192 132.709 295.797 132.144 295.008C131.589 294.219 131.312 293.157 131.312 291.824C131.312 290.96 131.445 290.192 131.712 289.52C131.979 288.848 132.363 288.325 132.864 287.952C133.365 287.568 133.952 287.376 134.624 287.376C135.488 287.376 136.245 287.723 136.896 288.416V284L138.368 284.176ZM134.816 295.024C135.264 295.024 135.648 294.923 135.968 294.72C136.288 294.507 136.597 294.192 136.896 293.776V289.648C136.619 289.285 136.32 289.013 136 288.832C135.691 288.64 135.339 288.544 134.944 288.544C134.293 288.544 133.787 288.816 133.424 289.36C133.072 289.904 132.896 290.715 132.896 291.792C132.896 292.88 133.061 293.691 133.392 294.224C133.723 294.757 134.197 295.024 134.816 295.024ZM147.531 291.536C147.531 291.781 147.52 292.032 147.499 292.288H142.123C142.187 293.216 142.421 293.899 142.827 294.336C143.232 294.773 143.755 294.992 144.395 294.992C144.8 294.992 145.173 294.933 145.515 294.816C145.856 294.699 146.213 294.512 146.587 294.256L147.227 295.136C146.331 295.84 145.349 296.192 144.283 296.192C143.109 296.192 142.192 295.808 141.531 295.04C140.88 294.272 140.555 293.216 140.555 291.872C140.555 290.997 140.693 290.224 140.971 289.552C141.259 288.869 141.664 288.336 142.187 287.952C142.72 287.568 143.344 287.376 144.059 287.376C145.179 287.376 146.037 287.744 146.635 288.48C147.232 289.216 147.531 290.235 147.531 291.536ZM146.075 291.104C146.075 290.272 145.909 289.637 145.579 289.2C145.248 288.763 144.752 288.544 144.091 288.544C142.885 288.544 142.229 289.429 142.123 291.2H146.075V291.104ZM158.105 287.376C158.799 287.376 159.353 287.611 159.769 288.08C160.185 288.539 160.393 289.163 160.393 289.952V296H158.921V290.16C158.921 289.072 158.527 288.528 157.737 288.528C157.321 288.528 156.969 288.651 156.681 288.896C156.393 289.131 156.084 289.504 155.753 290.016V296H154.281V290.16C154.281 289.072 153.887 288.528 153.097 288.528C152.671 288.528 152.313 288.651 152.025 288.896C151.737 289.141 151.433 289.515 151.113 290.016V296H149.641V287.568H150.905L151.033 288.8C151.663 287.851 152.473 287.376 153.465 287.376C153.988 287.376 154.431 287.509 154.793 287.776C155.167 288.043 155.433 288.416 155.593 288.896C155.924 288.405 156.287 288.032 156.681 287.776C157.087 287.509 157.561 287.376 158.105 287.376ZM166.387 296.048C166.056 297.029 165.592 297.803 164.995 298.368C164.408 298.944 163.565 299.291 162.467 299.408L162.307 298.256C162.861 298.16 163.304 298.021 163.635 297.84C163.965 297.659 164.227 297.424 164.419 297.136C164.621 296.859 164.808 296.48 164.979 296H164.483L161.651 287.568H163.219L165.475 294.928L167.683 287.568H169.203L166.387 296.048ZM171.092 293.968C171.412 293.968 171.679 294.075 171.892 294.288C172.105 294.501 172.212 294.763 172.212 295.072C172.212 295.381 172.105 295.648 171.892 295.872C171.679 296.085 171.412 296.192 171.092 296.192C170.783 296.192 170.521 296.085 170.308 295.872C170.095 295.648 169.988 295.381 169.988 295.072C169.988 294.763 170.095 294.501 170.308 294.288C170.521 294.075 170.783 293.968 171.092 293.968ZM171.092 288.08C171.412 288.08 171.679 288.187 171.892 288.4C172.105 288.613 172.212 288.875 172.212 289.184C172.212 289.493 172.105 289.76 171.892 289.984C171.679 290.197 171.412 290.304 171.092 290.304C170.783 290.304 170.521 290.197 170.308 289.984C170.095 289.76 169.988 289.493 169.988 289.184C169.988 288.875 170.095 288.613 170.308 288.4C170.521 288.187 170.783 288.08 171.092 288.08Z" fill="#0EE6B7"/>
<path d="M0.5 15C0.5 6.99188 6.99187 0.5 15 0.5H584C592.008 0.5 598.5 6.99187 598.5 15V386.5H0.5V15Z" stroke="#4A4A4A"/>
</g>
</svg>
