<svg width="53" height="45" viewBox="0 0 53 45" fill="none" xmlns="http://www.w3.org/2000/svg">
<rect width="53" height="45" rx="10" fill="#161B22"/>
<path d="M27 16C27.2652 16 27.5196 15.8946 27.7071 15.7071C27.8946 15.5196 28 15.2652 28 15V13C28 12.7348 27.8946 12.4804 27.7071 12.2929C27.5196 12.1054 27.2652 12 27 12C26.7348 12 26.4804 12.1054 26.2929 12.2929C26.1054 12.4804 26 12.7348 26 13V15C26 15.2652 26.1054 15.5196 26.2929 15.7071C26.4804 15.8946 26.7348 16 27 16ZM36 21H34C33.7348 21 33.4804 21.1054 33.2929 21.2929C33.1054 21.4804 33 21.7348 33 22C33 22.2652 33.1054 22.5196 33.2929 22.7071C33.4804 22.8946 33.7348 23 34 23H36C36.2652 23 36.5196 22.8946 36.7071 22.7071C36.8946 22.5196 37 22.2652 37 22C37 21.7348 36.8946 21.4804 36.7071 21.2929C36.5196 21.1054 36.2652 21 36 21ZM21 22C21 21.7348 20.8946 21.4804 20.7071 21.2929C20.5196 21.1054 20.2652 21 20 21H18C17.7348 21 17.4804 21.1054 17.2929 21.2929C17.1054 21.4804 17 21.7348 17 22C17 22.2652 17.1054 22.5196 17.2929 22.7071C17.4804 22.8946 17.7348 23 18 23H20C20.2652 23 20.5196 22.8946 20.7071 22.7071C20.8946 22.5196 21 22.2652 21 22ZM21.22 15C21.0251 14.8157 20.7649 14.7163 20.4967 14.7238C20.2285 14.7313 19.9743 14.8451 19.79 15.04C19.6057 15.2349 19.5063 15.4951 19.5138 15.7633C19.5213 16.0315 19.6351 16.2857 19.83 16.47L21.27 17.86C21.3666 17.9533 21.4811 18.0262 21.6065 18.0743C21.7319 18.1224 21.8658 18.1448 22 18.14C22.1347 18.1395 22.2679 18.1118 22.3916 18.0585C22.5154 18.0052 22.6271 17.9275 22.72 17.83C22.9063 17.6426 23.0108 17.3892 23.0108 17.125C23.0108 16.8608 22.9063 16.6074 22.72 16.42L21.22 15ZM32 18.14C32.2575 18.139 32.5046 18.0387 32.69 17.86L34.13 16.47C34.3057 16.2865 34.4049 16.0429 34.4075 15.7889C34.4101 15.5348 34.3159 15.2893 34.1441 15.1022C33.9722 14.915 33.7356 14.8003 33.4822 14.7814C33.2289 14.7624 32.9778 14.8406 32.78 15L31.34 16.42C31.1537 16.6074 31.0492 16.8608 31.0492 17.125C31.0492 17.3892 31.1537 17.6426 31.34 17.83C31.5131 18.0127 31.7488 18.1234 32 18.14ZM27 28C26.7348 28 26.4804 28.1054 26.2929 28.2929C26.1054 28.4804 26 28.7348 26 29V31C26 31.2652 26.1054 31.5196 26.2929 31.7071C26.4804 31.8946 26.7348 32 27 32C27.2652 32 27.5196 31.8946 27.7071 31.7071C27.8946 31.5196 28 31.2652 28 31V29C28 28.7348 27.8946 28.4804 27.7071 28.2929C27.5196 28.1054 27.2652 28 27 28ZM32.73 26.14C32.539 25.9557 32.2827 25.8548 32.0173 25.8594C31.752 25.8641 31.4993 25.974 31.315 26.165C31.1307 26.356 31.0298 26.6123 31.0344 26.8777C31.0391 27.143 31.149 27.3957 31.34 27.58L32.78 29C32.9654 29.1787 33.2125 29.279 33.47 29.28C33.604 29.2808 33.7368 29.2546 33.8605 29.2031C33.9841 29.1516 34.0962 29.0757 34.19 28.98C34.2837 28.887 34.3581 28.7764 34.4089 28.6546C34.4597 28.5327 34.4858 28.402 34.4858 28.27C34.4858 28.138 34.4597 28.0073 34.4089 27.8854C34.3581 27.7636 34.2837 27.653 34.19 27.56L32.73 26.14ZM21.27 26.14L19.83 27.53C19.7363 27.623 19.6619 27.7336 19.6111 27.8554C19.5603 27.9773 19.5342 28.108 19.5342 28.24C19.5342 28.372 19.5603 28.5027 19.6111 28.6246C19.6619 28.7464 19.7363 28.857 19.83 28.95C19.9238 29.0457 20.0359 29.1216 20.1595 29.1731C20.2832 29.2246 20.416 29.2508 20.55 29.25C20.7965 29.2521 21.0351 29.1631 21.22 29L22.66 27.61C22.851 27.4257 22.9609 27.173 22.9656 26.9077C22.9702 26.6423 22.8693 26.386 22.685 26.195C22.5007 26.004 22.248 25.8941 21.9827 25.8894C21.7173 25.8848 21.461 25.9857 21.27 26.17V26.14ZM27 18C26.2089 18 25.4355 18.2346 24.7777 18.6741C24.1199 19.1136 23.6072 19.7384 23.3045 20.4693C23.0017 21.2002 22.9225 22.0044 23.0769 22.7804C23.2312 23.5563 23.6122 24.269 24.1716 24.8284C24.731 25.3878 25.4437 25.7688 26.2196 25.9231C26.9956 26.0775 27.7998 25.9983 28.5307 25.6955C29.2616 25.3928 29.8864 24.8801 30.3259 24.2223C30.7654 23.5645 31 22.7911 31 22C31 20.9391 30.5786 19.9217 29.8284 19.1716C29.0783 18.4214 28.0609 18 27 18Z" fill="url(#paint0_linear_330_2)"/>
<defs>
<linearGradient id="paint0_linear_330_2" x1="27" y1="12" x2="27" y2="32" gradientUnits="userSpaceOnUse">
<stop stop-color="#CBBEE7"/>
<stop offset="1" stop-color="#E5E5E5"/>
</linearGradient>
</defs>
</svg>
