<svg width="34" height="33" viewBox="0 0 34 33" fill="none" xmlns="http://www.w3.org/2000/svg">
<path d="M29.7433 0H4.23886C2.31879 0 0.760986 1.53925 0.760986 3.43647V28.6373C0.760986 30.5345 2.31879 32.0737 4.23886 32.0737H29.7433C31.6634 32.0737 33.2212 30.5345 33.2212 28.6373V3.43647C33.2212 1.53925 31.6634 0 29.7433 0ZM26.2002 11.369C26.2147 11.5695 26.2147 11.7771 26.2147 11.9775C26.2147 18.1847 21.4326 25.3368 12.6944 25.3368C9.99909 25.3368 7.49937 24.5636 5.39815 23.232C5.78217 23.2749 6.15169 23.2893 6.54296 23.2893C8.76735 23.2893 10.8106 22.5447 12.4409 21.2847C10.3541 21.2417 8.6007 19.8886 7.99932 18.0272C8.73112 18.1346 9.39047 18.1346 10.144 17.9413C7.97033 17.5045 6.34008 15.6145 6.34008 13.3307V13.2734C6.97044 13.6242 7.70949 13.839 8.48477 13.8676C7.83298 13.4392 7.29866 12.858 6.92949 12.176C6.56032 11.4939 6.36778 10.7321 6.36906 9.95861C6.36906 9.08517 6.60092 8.28333 7.01392 7.58888C9.35424 10.4383 12.8683 12.2997 16.8099 12.5002C16.1361 9.31427 18.5489 6.72976 21.4471 6.72976C22.8165 6.72976 24.0483 7.29534 24.9177 8.21174C25.9901 8.01128 27.019 7.61751 27.9319 7.08056C27.5769 8.16878 26.8306 9.08517 25.8452 9.66508C26.8016 9.56485 27.729 9.29995 28.584 8.93483C27.9391 9.8727 27.1276 10.7032 26.2002 11.369Z" fill="white"/>
</svg>
